<svg xmlns="http://www.w3.org/2000/svg" xmlns:xlink="http://www.w3.org/1999/xlink" width="1920" zoomAndPan="magnify" viewBox="0 0 1440 809.999993" height="1080" preserveAspectRatio="xMidYMid meet" version="1.0"><defs><clipPath id="c30ece0c1e"><path d="M 355.328125 11.101562 L 503.886719 11.101562 L 503.886719 159.660156 L 355.328125 159.660156 Z M 355.328125 11.101562 " clip-rule="nonzero"/></clipPath><clipPath id="2d9afec401"><path d="M 429.609375 11.101562 C 388.585938 11.101562 355.328125 44.355469 355.328125 85.378906 C 355.328125 126.402344 388.585938 159.660156 429.609375 159.660156 C 470.632812 159.660156 503.886719 126.402344 503.886719 85.378906 C 503.886719 44.355469 470.632812 11.101562 429.609375 11.101562 Z M 429.609375 11.101562 " clip-rule="nonzero"/></clipPath><clipPath id="ee627d9b82"><path d="M 0.328125 0.101562 L 148.886719 0.101562 L 148.886719 148.660156 L 0.328125 148.660156 Z M 0.328125 0.101562 " clip-rule="nonzero"/></clipPath><clipPath id="797535b3e0"><path d="M 74.609375 0.101562 C 33.585938 0.101562 0.328125 33.355469 0.328125 74.378906 C 0.328125 115.402344 33.585938 148.660156 74.609375 148.660156 C 115.632812 148.660156 148.886719 115.402344 148.886719 74.378906 C 148.886719 33.355469 115.632812 0.101562 74.609375 0.101562 Z M 74.609375 0.101562 " clip-rule="nonzero"/></clipPath><clipPath id="58080e6787"><rect x="0" width="149" y="0" height="149"/></clipPath><clipPath id="86f6c70a9f"><path d="M 936.113281 11.101562 L 1084.671875 11.101562 L 1084.671875 159.660156 L 936.113281 159.660156 Z M 936.113281 11.101562 " clip-rule="nonzero"/></clipPath><clipPath id="3f5dbcd3a8"><path d="M 1010.390625 11.101562 C 969.367188 11.101562 936.113281 44.355469 936.113281 85.378906 C 936.113281 126.402344 969.367188 159.660156 1010.390625 159.660156 C 1051.414062 159.660156 1084.671875 126.402344 1084.671875 85.378906 C 1084.671875 44.355469 1051.414062 11.101562 1010.390625 11.101562 Z M 1010.390625 11.101562 " clip-rule="nonzero"/></clipPath><clipPath id="b1b331b4af"><path d="M 0.113281 0.101562 L 148.671875 0.101562 L 148.671875 148.660156 L 0.113281 148.660156 Z M 0.113281 0.101562 " clip-rule="nonzero"/></clipPath><clipPath id="47d2f83e43"><path d="M 74.390625 0.101562 C 33.367188 0.101562 0.113281 33.355469 0.113281 74.378906 C 0.113281 115.402344 33.367188 148.660156 74.390625 148.660156 C 115.414062 148.660156 148.671875 115.402344 148.671875 74.378906 C 148.671875 33.355469 115.414062 0.101562 74.390625 0.101562 Z M 74.390625 0.101562 " clip-rule="nonzero"/></clipPath><clipPath id="b74dd577b6"><rect x="0" width="149" y="0" height="149"/></clipPath><clipPath id="285be5e140"><path d="M 936.113281 650.339844 L 1084.671875 650.339844 L 1084.671875 798.898438 L 936.113281 798.898438 Z M 936.113281 650.339844 " clip-rule="nonzero"/></clipPath><clipPath id="95552f6a2a"><path d="M 1010.390625 650.339844 C 969.367188 650.339844 936.113281 683.597656 936.113281 724.621094 C 936.113281 765.644531 969.367188 798.898438 1010.390625 798.898438 C 1051.414062 798.898438 1084.671875 765.644531 1084.671875 724.621094 C 1084.671875 683.597656 1051.414062 650.339844 1010.390625 650.339844 Z M 1010.390625 650.339844 " clip-rule="nonzero"/></clipPath><clipPath id="0b1ddc5ced"><path d="M 0.113281 0.339844 L 148.671875 0.339844 L 148.671875 148.898438 L 0.113281 148.898438 Z M 0.113281 0.339844 " clip-rule="nonzero"/></clipPath><clipPath id="e72f2e68de"><path d="M 74.390625 0.339844 C 33.367188 0.339844 0.113281 33.597656 0.113281 74.621094 C 0.113281 115.644531 33.367188 148.898438 74.390625 148.898438 C 115.414062 148.898438 148.671875 115.644531 148.671875 74.621094 C 148.671875 33.597656 115.414062 0.339844 74.390625 0.339844 Z M 74.390625 0.339844 " clip-rule="nonzero"/></clipPath><clipPath id="10c03a1396"><rect x="0" width="149" y="0" height="149"/></clipPath><clipPath id="a276e7f273"><path d="M 355.328125 650.339844 L 503.886719 650.339844 L 503.886719 798.898438 L 355.328125 798.898438 Z M 355.328125 650.339844 " clip-rule="nonzero"/></clipPath><clipPath id="e8ea7378bc"><path d="M 429.609375 650.339844 C 388.585938 650.339844 355.328125 683.597656 355.328125 724.621094 C 355.328125 765.644531 388.585938 798.898438 429.609375 798.898438 C 470.632812 798.898438 503.886719 765.644531 503.886719 724.621094 C 503.886719 683.597656 470.632812 650.339844 429.609375 650.339844 Z M 429.609375 650.339844 " clip-rule="nonzero"/></clipPath><clipPath id="cd031e16e4"><path d="M 0.328125 0.339844 L 148.886719 0.339844 L 148.886719 148.898438 L 0.328125 148.898438 Z M 0.328125 0.339844 " clip-rule="nonzero"/></clipPath><clipPath id="ee722feb1e"><path d="M 74.609375 0.339844 C 33.585938 0.339844 0.328125 33.597656 0.328125 74.621094 C 0.328125 115.644531 33.585938 148.898438 74.609375 148.898438 C 115.632812 148.898438 148.886719 115.644531 148.886719 74.621094 C 148.886719 33.597656 115.632812 0.339844 74.609375 0.339844 Z M 74.609375 0.339844 " clip-rule="nonzero"/></clipPath><clipPath id="6bc47e3426"><rect x="0" width="149" y="0" height="149"/></clipPath><clipPath id="e23441c30c"><path d="M 645.71875 332.371094 L 794.28125 332.371094 L 794.28125 480.929688 L 645.71875 480.929688 Z M 645.71875 332.371094 " clip-rule="nonzero"/></clipPath><clipPath id="539bb1361d"><path d="M 720 332.371094 C 678.976562 332.371094 645.71875 365.625 645.71875 406.648438 C 645.71875 447.671875 678.976562 480.929688 720 480.929688 C 761.023438 480.929688 794.28125 447.671875 794.28125 406.648438 C 794.28125 365.625 761.023438 332.371094 720 332.371094 Z M 720 332.371094 " clip-rule="nonzero"/></clipPath><clipPath id="de4aadbfae"><path d="M 0.71875 0.371094 L 149.28125 0.371094 L 149.28125 148.929688 L 0.71875 148.929688 Z M 0.71875 0.371094 " clip-rule="nonzero"/></clipPath><clipPath id="ad424f97b5"><path d="M 75 0.371094 C 33.976562 0.371094 0.71875 33.625 0.71875 74.648438 C 0.71875 115.671875 33.976562 148.929688 75 148.929688 C 116.023438 148.929688 149.28125 115.671875 149.28125 74.648438 C 149.28125 33.625 116.023438 0.371094 75 0.371094 Z M 75 0.371094 " clip-rule="nonzero"/></clipPath><clipPath id="d1053cd3e5"><rect x="0" width="150" y="0" height="149"/></clipPath><clipPath id="63d4ba682d"><path d="M 960.273438 356.53125 L 1060.507812 356.53125 L 1060.507812 456.769531 L 960.273438 456.769531 Z M 960.273438 356.53125 " clip-rule="nonzero"/></clipPath><clipPath id="f8f156864a"><path d="M 1010.390625 356.53125 C 982.710938 356.53125 960.273438 378.972656 960.273438 406.648438 C 960.273438 434.328125 982.710938 456.769531 1010.390625 456.769531 C 1038.070312 456.769531 1060.507812 434.328125 1060.507812 406.648438 C 1060.507812 378.972656 1038.070312 356.53125 1010.390625 356.53125 Z M 1010.390625 356.53125 " clip-rule="nonzero"/></clipPath><clipPath id="5e2226b374"><path d="M 0.273438 0.53125 L 100.507812 0.53125 L 100.507812 100.769531 L 0.273438 100.769531 Z M 0.273438 0.53125 " clip-rule="nonzero"/></clipPath><clipPath id="df27d570bf"><path d="M 50.390625 0.53125 C 22.710938 0.53125 0.273438 22.972656 0.273438 50.648438 C 0.273438 78.328125 22.710938 100.769531 50.390625 100.769531 C 78.070312 100.769531 100.507812 78.328125 100.507812 50.648438 C 100.507812 22.972656 78.070312 0.53125 50.390625 0.53125 Z M 50.390625 0.53125 " clip-rule="nonzero"/></clipPath><clipPath id="fa3981421a"><rect x="0" width="101" y="0" height="101"/></clipPath><clipPath id="3e7ac287be"><path d="M 814.261719 195.898438 L 914.496094 195.898438 L 914.496094 296.132812 L 814.261719 296.132812 Z M 814.261719 195.898438 " clip-rule="nonzero"/></clipPath><clipPath id="1df6c1bc98"><path d="M 864.378906 195.898438 C 836.699219 195.898438 814.261719 218.335938 814.261719 246.015625 C 814.261719 273.695312 836.699219 296.132812 864.378906 296.132812 C 892.058594 296.132812 914.496094 273.695312 914.496094 246.015625 C 914.496094 218.335938 892.058594 195.898438 864.378906 195.898438 Z M 864.378906 195.898438 " clip-rule="nonzero"/></clipPath><clipPath id="ab1e47f55f"><path d="M 0.261719 0.898438 L 100.496094 0.898438 L 100.496094 101.132812 L 0.261719 101.132812 Z M 0.261719 0.898438 " clip-rule="nonzero"/></clipPath><clipPath id="9aa0a4c177"><path d="M 50.378906 0.898438 C 22.699219 0.898438 0.261719 23.335938 0.261719 51.015625 C 0.261719 78.695312 22.699219 101.132812 50.378906 101.132812 C 78.058594 101.132812 100.496094 78.695312 100.496094 51.015625 C 100.496094 23.335938 78.058594 0.898438 50.378906 0.898438 Z M 50.378906 0.898438 " clip-rule="nonzero"/></clipPath><clipPath id="ecac67b40b"><rect x="0" width="101" y="0" height="102"/></clipPath><clipPath id="c72d038177"><path d="M 525.503906 195.898438 L 625.738281 195.898438 L 625.738281 296.132812 L 525.503906 296.132812 Z M 525.503906 195.898438 " clip-rule="nonzero"/></clipPath><clipPath id="306d24bc6c"><path d="M 575.621094 195.898438 C 547.941406 195.898438 525.503906 218.335938 525.503906 246.015625 C 525.503906 273.695312 547.941406 296.132812 575.621094 296.132812 C 603.300781 296.132812 625.738281 273.695312 625.738281 246.015625 C 625.738281 218.335938 603.300781 195.898438 575.621094 195.898438 Z M 575.621094 195.898438 " clip-rule="nonzero"/></clipPath><clipPath id="c138ace1b7"><path d="M 0.503906 0.898438 L 100.738281 0.898438 L 100.738281 101.132812 L 0.503906 101.132812 Z M 0.503906 0.898438 " clip-rule="nonzero"/></clipPath><clipPath id="1df5c09b90"><path d="M 50.621094 0.898438 C 22.941406 0.898438 0.503906 23.335938 0.503906 51.015625 C 0.503906 78.695312 22.941406 101.132812 50.621094 101.132812 C 78.300781 101.132812 100.738281 78.695312 100.738281 51.015625 C 100.738281 23.335938 78.300781 0.898438 50.621094 0.898438 Z M 50.621094 0.898438 " clip-rule="nonzero"/></clipPath><clipPath id="5882c1d520"><rect x="0" width="101" y="0" height="102"/></clipPath><clipPath id="8ed1152ef7"><path d="M 525.503906 516.882812 L 625.738281 516.882812 L 625.738281 617.117188 L 525.503906 617.117188 Z M 525.503906 516.882812 " clip-rule="nonzero"/></clipPath><clipPath id="d10a146985"><path d="M 575.621094 516.882812 C 547.941406 516.882812 525.503906 539.320312 525.503906 567 C 525.503906 594.679688 547.941406 617.117188 575.621094 617.117188 C 603.300781 617.117188 625.738281 594.679688 625.738281 567 C 625.738281 539.320312 603.300781 516.882812 575.621094 516.882812 Z M 575.621094 516.882812 " clip-rule="nonzero"/></clipPath><clipPath id="9efcc37738"><path d="M 0.503906 0.882812 L 100.738281 0.882812 L 100.738281 101.117188 L 0.503906 101.117188 Z M 0.503906 0.882812 " clip-rule="nonzero"/></clipPath><clipPath id="47ebc903d2"><path d="M 50.621094 0.882812 C 22.941406 0.882812 0.503906 23.320312 0.503906 51 C 0.503906 78.679688 22.941406 101.117188 50.621094 101.117188 C 78.300781 101.117188 100.738281 78.679688 100.738281 51 C 100.738281 23.320312 78.300781 0.882812 50.621094 0.882812 Z M 50.621094 0.882812 " clip-rule="nonzero"/></clipPath><clipPath id="149475dfdd"><rect x="0" width="101" y="0" height="102"/></clipPath><clipPath id="2bf521bce1"><path d="M 814.261719 516.882812 L 914.496094 516.882812 L 914.496094 617.117188 L 814.261719 617.117188 Z M 814.261719 516.882812 " clip-rule="nonzero"/></clipPath><clipPath id="e3bd8c3357"><path d="M 864.378906 516.882812 C 836.699219 516.882812 814.261719 539.320312 814.261719 567 C 814.261719 594.679688 836.699219 617.117188 864.378906 617.117188 C 892.058594 617.117188 914.496094 594.679688 914.496094 567 C 914.496094 539.320312 892.058594 516.882812 864.378906 516.882812 Z M 864.378906 516.882812 " clip-rule="nonzero"/></clipPath><clipPath id="b4ee90c324"><path d="M 0.261719 0.882812 L 100.496094 0.882812 L 100.496094 101.117188 L 0.261719 101.117188 Z M 0.261719 0.882812 " clip-rule="nonzero"/></clipPath><clipPath id="c44676922b"><path d="M 50.378906 0.882812 C 22.699219 0.882812 0.261719 23.320312 0.261719 51 C 0.261719 78.679688 22.699219 101.117188 50.378906 101.117188 C 78.058594 101.117188 100.496094 78.679688 100.496094 51 C 100.496094 23.320312 78.058594 0.882812 50.378906 0.882812 Z M 50.378906 0.882812 " clip-rule="nonzero"/></clipPath><clipPath id="1967d5be05"><rect x="0" width="101" y="0" height="102"/></clipPath><clipPath id="d801e3bb6d"><path d="M 379.492188 356.53125 L 479.726562 356.53125 L 479.726562 456.769531 L 379.492188 456.769531 Z M 379.492188 356.53125 " clip-rule="nonzero"/></clipPath><clipPath id="9e41addee6"><path d="M 429.609375 356.53125 C 401.929688 356.53125 379.492188 378.972656 379.492188 406.648438 C 379.492188 434.328125 401.929688 456.769531 429.609375 456.769531 C 457.289062 456.769531 479.726562 434.328125 479.726562 406.648438 C 479.726562 378.972656 457.289062 356.53125 429.609375 356.53125 Z M 429.609375 356.53125 " clip-rule="nonzero"/></clipPath><clipPath id="75b578c20c"><path d="M 0.492188 0.53125 L 100.726562 0.53125 L 100.726562 100.769531 L 0.492188 100.769531 Z M 0.492188 0.53125 " clip-rule="nonzero"/></clipPath><clipPath id="6bcd8a0115"><path d="M 50.609375 0.53125 C 22.929688 0.53125 0.492188 22.972656 0.492188 50.648438 C 0.492188 78.328125 22.929688 100.769531 50.609375 100.769531 C 78.289062 100.769531 100.726562 78.328125 100.726562 50.648438 C 100.726562 22.972656 78.289062 0.53125 50.609375 0.53125 Z M 50.609375 0.53125 " clip-rule="nonzero"/></clipPath><clipPath id="9de5bab094"><rect x="0" width="101" y="0" height="101"/></clipPath><clipPath id="4a85ba1da9"><path d="M 669.882812 674.503906 L 770.117188 674.503906 L 770.117188 774.738281 L 669.882812 774.738281 Z M 669.882812 674.503906 " clip-rule="nonzero"/></clipPath><clipPath id="2cfa43bd3a"><path d="M 720 674.503906 C 692.320312 674.503906 669.882812 696.941406 669.882812 724.621094 C 669.882812 752.300781 692.320312 774.738281 720 774.738281 C 747.679688 774.738281 770.117188 752.300781 770.117188 724.621094 C 770.117188 696.941406 747.679688 674.503906 720 674.503906 Z M 720 674.503906 " clip-rule="nonzero"/></clipPath><clipPath id="ec0b5e4eb9"><path d="M 0.882812 0.503906 L 101.117188 0.503906 L 101.117188 100.738281 L 0.882812 100.738281 Z M 0.882812 0.503906 " clip-rule="nonzero"/></clipPath><clipPath id="575e78b984"><path d="M 51 0.503906 C 23.320312 0.503906 0.882812 22.941406 0.882812 50.621094 C 0.882812 78.300781 23.320312 100.738281 51 100.738281 C 78.679688 100.738281 101.117188 78.300781 101.117188 50.621094 C 101.117188 22.941406 78.679688 0.503906 51 0.503906 Z M 51 0.503906 " clip-rule="nonzero"/></clipPath><clipPath id="e2d37e548c"><rect x="0" width="102" y="0" height="101"/></clipPath><clipPath id="4c7d1db8d6"><path d="M 669.882812 35.261719 L 770.117188 35.261719 L 770.117188 135.496094 L 669.882812 135.496094 Z M 669.882812 35.261719 " clip-rule="nonzero"/></clipPath><clipPath id="d00797e85d"><path d="M 720 35.261719 C 692.320312 35.261719 669.882812 57.699219 669.882812 85.378906 C 669.882812 113.058594 692.320312 135.496094 720 135.496094 C 747.679688 135.496094 770.117188 113.058594 770.117188 85.378906 C 770.117188 57.699219 747.679688 35.261719 720 35.261719 Z M 720 35.261719 " clip-rule="nonzero"/></clipPath><clipPath id="4501441414"><path d="M 0.882812 0.261719 L 101.117188 0.261719 L 101.117188 100.496094 L 0.882812 100.496094 Z M 0.882812 0.261719 " clip-rule="nonzero"/></clipPath><clipPath id="b1e07ae80d"><path d="M 51 0.261719 C 23.320312 0.261719 0.882812 22.699219 0.882812 50.378906 C 0.882812 78.058594 23.320312 100.496094 51 100.496094 C 78.679688 100.496094 101.117188 78.058594 101.117188 50.378906 C 101.117188 22.699219 78.679688 0.261719 51 0.261719 Z M 51 0.261719 " clip-rule="nonzero"/></clipPath><clipPath id="beacc32a92"><rect x="0" width="102" y="0" height="101"/></clipPath><clipPath id="89713a2b18"><path d="M 549.773438 60.320312 L 599.890625 60.320312 L 599.890625 110.4375 L 549.773438 110.4375 Z M 549.773438 60.320312 " clip-rule="nonzero"/></clipPath><clipPath id="cbfbbd08ac"><path d="M 574.832031 60.320312 C 560.992188 60.320312 549.773438 71.539062 549.773438 85.378906 C 549.773438 99.21875 560.992188 110.4375 574.832031 110.4375 C 588.671875 110.4375 599.890625 99.21875 599.890625 85.378906 C 599.890625 71.539062 588.671875 60.320312 574.832031 60.320312 Z M 574.832031 60.320312 " clip-rule="nonzero"/></clipPath><clipPath id="576ff31f40"><path d="M 0.773438 0.320312 L 50.890625 0.320312 L 50.890625 50.4375 L 0.773438 50.4375 Z M 0.773438 0.320312 " clip-rule="nonzero"/></clipPath><clipPath id="c45b1fb235"><path d="M 25.832031 0.320312 C 11.992188 0.320312 0.773438 11.539062 0.773438 25.378906 C 0.773438 39.21875 11.992188 50.4375 25.832031 50.4375 C 39.671875 50.4375 50.890625 39.21875 50.890625 25.378906 C 50.890625 11.539062 39.671875 0.320312 25.832031 0.320312 Z M 25.832031 0.320312 " clip-rule="nonzero"/></clipPath><clipPath id="f641af2be4"><rect x="0" width="51" y="0" height="51"/></clipPath><clipPath id="55cdc5067f"><path d="M 839.320312 60.320312 L 889.4375 60.320312 L 889.4375 110.4375 L 839.320312 110.4375 Z M 839.320312 60.320312 " clip-rule="nonzero"/></clipPath><clipPath id="361762010d"><path d="M 864.378906 60.320312 C 850.539062 60.320312 839.320312 71.539062 839.320312 85.378906 C 839.320312 99.21875 850.539062 110.4375 864.378906 110.4375 C 878.21875 110.4375 889.4375 99.21875 889.4375 85.378906 C 889.4375 71.539062 878.21875 60.320312 864.378906 60.320312 Z M 864.378906 60.320312 " clip-rule="nonzero"/></clipPath><clipPath id="7da92bdb32"><path d="M 0.320312 0.320312 L 50.4375 0.320312 L 50.4375 50.4375 L 0.320312 50.4375 Z M 0.320312 0.320312 " clip-rule="nonzero"/></clipPath><clipPath id="0dc833fb96"><path d="M 25.378906 0.320312 C 11.539062 0.320312 0.320312 11.539062 0.320312 25.378906 C 0.320312 39.21875 11.539062 50.4375 25.378906 50.4375 C 39.21875 50.4375 50.4375 39.21875 50.4375 25.378906 C 50.4375 11.539062 39.21875 0.320312 25.378906 0.320312 Z M 25.378906 0.320312 " clip-rule="nonzero"/></clipPath><clipPath id="e537a4b4d2"><rect x="0" width="51" y="0" height="51"/></clipPath><clipPath id="8ad893646c"><path d="M 839.320312 381.589844 L 889.4375 381.589844 L 889.4375 431.710938 L 839.320312 431.710938 Z M 839.320312 381.589844 " clip-rule="nonzero"/></clipPath><clipPath id="2fbc6922db"><path d="M 864.378906 381.589844 C 850.539062 381.589844 839.320312 392.808594 839.320312 406.648438 C 839.320312 420.488281 850.539062 431.710938 864.378906 431.710938 C 878.21875 431.710938 889.4375 420.488281 889.4375 406.648438 C 889.4375 392.808594 878.21875 381.589844 864.378906 381.589844 Z M 864.378906 381.589844 " clip-rule="nonzero"/></clipPath><clipPath id="b4b569dc3f"><path d="M 0.320312 0.589844 L 50.4375 0.589844 L 50.4375 50.710938 L 0.320312 50.710938 Z M 0.320312 0.589844 " clip-rule="nonzero"/></clipPath><clipPath id="df7fa2b51e"><path d="M 25.378906 0.589844 C 11.539062 0.589844 0.320312 11.808594 0.320312 25.648438 C 0.320312 39.488281 11.539062 50.710938 25.378906 50.710938 C 39.21875 50.710938 50.4375 39.488281 50.4375 25.648438 C 50.4375 11.808594 39.21875 0.589844 25.378906 0.589844 Z M 25.378906 0.589844 " clip-rule="nonzero"/></clipPath><clipPath id="0336dbc27d"><rect x="0" width="51" y="0" height="51"/></clipPath><clipPath id="da3c568158"><path d="M 839.320312 699.5625 L 889.4375 699.5625 L 889.4375 749.679688 L 839.320312 749.679688 Z M 839.320312 699.5625 " clip-rule="nonzero"/></clipPath><clipPath id="51d6b911cd"><path d="M 864.378906 699.5625 C 850.539062 699.5625 839.320312 710.78125 839.320312 724.621094 C 839.320312 738.460938 850.539062 749.679688 864.378906 749.679688 C 878.21875 749.679688 889.4375 738.460938 889.4375 724.621094 C 889.4375 710.78125 878.21875 699.5625 864.378906 699.5625 Z M 864.378906 699.5625 " clip-rule="nonzero"/></clipPath><clipPath id="238d5d0494"><path d="M 0.320312 0.5625 L 50.4375 0.5625 L 50.4375 50.679688 L 0.320312 50.679688 Z M 0.320312 0.5625 " clip-rule="nonzero"/></clipPath><clipPath id="11d2c9ac54"><path d="M 25.378906 0.5625 C 11.539062 0.5625 0.320312 11.78125 0.320312 25.621094 C 0.320312 39.460938 11.539062 50.679688 25.378906 50.679688 C 39.21875 50.679688 50.4375 39.460938 50.4375 25.621094 C 50.4375 11.78125 39.21875 0.5625 25.378906 0.5625 Z M 25.378906 0.5625 " clip-rule="nonzero"/></clipPath><clipPath id="370a8a6a73"><rect x="0" width="51" y="0" height="51"/></clipPath><clipPath id="1ecaf25581"><path d="M 550.5625 699.5625 L 600.679688 699.5625 L 600.679688 749.679688 L 550.5625 749.679688 Z M 550.5625 699.5625 " clip-rule="nonzero"/></clipPath><clipPath id="be5776e0ec"><path d="M 575.621094 699.5625 C 561.78125 699.5625 550.5625 710.78125 550.5625 724.621094 C 550.5625 738.460938 561.78125 749.679688 575.621094 749.679688 C 589.460938 749.679688 600.679688 738.460938 600.679688 724.621094 C 600.679688 710.78125 589.460938 699.5625 575.621094 699.5625 Z M 575.621094 699.5625 " clip-rule="nonzero"/></clipPath><clipPath id="54d8939b1b"><path d="M 0.5625 0.5625 L 50.679688 0.5625 L 50.679688 50.679688 L 0.5625 50.679688 Z M 0.5625 0.5625 " clip-rule="nonzero"/></clipPath><clipPath id="4ce0270938"><path d="M 25.621094 0.5625 C 11.78125 0.5625 0.5625 11.78125 0.5625 25.621094 C 0.5625 39.460938 11.78125 50.679688 25.621094 50.679688 C 39.460938 50.679688 50.679688 39.460938 50.679688 25.621094 C 50.679688 11.78125 39.460938 0.5625 25.621094 0.5625 Z M 25.621094 0.5625 " clip-rule="nonzero"/></clipPath><clipPath id="1785e1a7f0"><rect x="0" width="51" y="0" height="51"/></clipPath><clipPath id="353f0d6c49"><path d="M 550.5625 381.589844 L 600.679688 381.589844 L 600.679688 431.710938 L 550.5625 431.710938 Z M 550.5625 381.589844 " clip-rule="nonzero"/></clipPath><clipPath id="f34302d28d"><path d="M 575.621094 381.589844 C 561.78125 381.589844 550.5625 392.808594 550.5625 406.648438 C 550.5625 420.488281 561.78125 431.710938 575.621094 431.710938 C 589.460938 431.710938 600.679688 420.488281 600.679688 406.648438 C 600.679688 392.808594 589.460938 381.589844 575.621094 381.589844 Z M 575.621094 381.589844 " clip-rule="nonzero"/></clipPath><clipPath id="1e1870a783"><path d="M 0.5625 0.589844 L 50.679688 0.589844 L 50.679688 50.710938 L 0.5625 50.710938 Z M 0.5625 0.589844 " clip-rule="nonzero"/></clipPath><clipPath id="bcb8c6cbff"><path d="M 25.621094 0.589844 C 11.78125 0.589844 0.5625 11.808594 0.5625 25.648438 C 0.5625 39.488281 11.78125 50.710938 25.621094 50.710938 C 39.460938 50.710938 50.679688 39.488281 50.679688 25.648438 C 50.679688 11.808594 39.460938 0.589844 25.621094 0.589844 Z M 25.621094 0.589844 " clip-rule="nonzero"/></clipPath><clipPath id="d049cde813"><rect x="0" width="51" y="0" height="51"/></clipPath><clipPath id="b406a338e7"><path d="M 985.332031 540.578125 L 1035.449219 540.578125 L 1035.449219 590.695312 L 985.332031 590.695312 Z M 985.332031 540.578125 " clip-rule="nonzero"/></clipPath><clipPath id="fa1784b822"><path d="M 1010.390625 540.578125 C 996.550781 540.578125 985.332031 551.796875 985.332031 565.636719 C 985.332031 579.476562 996.550781 590.695312 1010.390625 590.695312 C 1024.230469 590.695312 1035.449219 579.476562 1035.449219 565.636719 C 1035.449219 551.796875 1024.230469 540.578125 1010.390625 540.578125 Z M 1010.390625 540.578125 " clip-rule="nonzero"/></clipPath><clipPath id="2174487ef1"><path d="M 0.332031 0.578125 L 50.449219 0.578125 L 50.449219 50.695312 L 0.332031 50.695312 Z M 0.332031 0.578125 " clip-rule="nonzero"/></clipPath><clipPath id="bf2e0bc5c7"><path d="M 25.390625 0.578125 C 11.550781 0.578125 0.332031 11.796875 0.332031 25.636719 C 0.332031 39.476562 11.550781 50.695312 25.390625 50.695312 C 39.230469 50.695312 50.449219 39.476562 50.449219 25.636719 C 50.449219 11.796875 39.230469 0.578125 25.390625 0.578125 Z M 25.390625 0.578125 " clip-rule="nonzero"/></clipPath><clipPath id="4a7be199e1"><rect x="0" width="51" y="0" height="51"/></clipPath><clipPath id="988d585c68"><path d="M 985.332031 220.957031 L 1035.449219 220.957031 L 1035.449219 271.074219 L 985.332031 271.074219 Z M 985.332031 220.957031 " clip-rule="nonzero"/></clipPath><clipPath id="dfc17ef4ca"><path d="M 1010.390625 220.957031 C 996.550781 220.957031 985.332031 232.175781 985.332031 246.015625 C 985.332031 259.855469 996.550781 271.074219 1010.390625 271.074219 C 1024.230469 271.074219 1035.449219 259.855469 1035.449219 246.015625 C 1035.449219 232.175781 1024.230469 220.957031 1010.390625 220.957031 Z M 1010.390625 220.957031 " clip-rule="nonzero"/></clipPath><clipPath id="54f02691f4"><path d="M 0.332031 0.957031 L 50.449219 0.957031 L 50.449219 51.074219 L 0.332031 51.074219 Z M 0.332031 0.957031 " clip-rule="nonzero"/></clipPath><clipPath id="1f383a85e9"><path d="M 25.390625 0.957031 C 11.550781 0.957031 0.332031 12.175781 0.332031 26.015625 C 0.332031 39.855469 11.550781 51.074219 25.390625 51.074219 C 39.230469 51.074219 50.449219 39.855469 50.449219 26.015625 C 50.449219 12.175781 39.230469 0.957031 25.390625 0.957031 Z M 25.390625 0.957031 " clip-rule="nonzero"/></clipPath><clipPath id="6eb9e01cde"><rect x="0" width="51" y="0" height="52"/></clipPath><clipPath id="7823e1979b"><path d="M 694.941406 540.578125 L 745.058594 540.578125 L 745.058594 590.695312 L 694.941406 590.695312 Z M 694.941406 540.578125 " clip-rule="nonzero"/></clipPath><clipPath id="aec8f83324"><path d="M 720 540.578125 C 706.160156 540.578125 694.941406 551.796875 694.941406 565.636719 C 694.941406 579.476562 706.160156 590.695312 720 590.695312 C 733.839844 590.695312 745.058594 579.476562 745.058594 565.636719 C 745.058594 551.796875 733.839844 540.578125 720 540.578125 Z M 720 540.578125 " clip-rule="nonzero"/></clipPath><clipPath id="e134e32c0c"><path d="M 0.941406 0.578125 L 51.058594 0.578125 L 51.058594 50.695312 L 0.941406 50.695312 Z M 0.941406 0.578125 " clip-rule="nonzero"/></clipPath><clipPath id="0621692b68"><path d="M 26 0.578125 C 12.160156 0.578125 0.941406 11.796875 0.941406 25.636719 C 0.941406 39.476562 12.160156 50.695312 26 50.695312 C 39.839844 50.695312 51.058594 39.476562 51.058594 25.636719 C 51.058594 11.796875 39.839844 0.578125 26 0.578125 Z M 26 0.578125 " clip-rule="nonzero"/></clipPath><clipPath id="42f83c76ac"><rect x="0" width="52" y="0" height="51"/></clipPath><clipPath id="9bc70f8eca"><path d="M 694.941406 220.957031 L 745.058594 220.957031 L 745.058594 271.074219 L 694.941406 271.074219 Z M 694.941406 220.957031 " clip-rule="nonzero"/></clipPath><clipPath id="f25b279159"><path d="M 720 220.957031 C 706.160156 220.957031 694.941406 232.175781 694.941406 246.015625 C 694.941406 259.855469 706.160156 271.074219 720 271.074219 C 733.839844 271.074219 745.058594 259.855469 745.058594 246.015625 C 745.058594 232.175781 733.839844 220.957031 720 220.957031 Z M 720 220.957031 " clip-rule="nonzero"/></clipPath><clipPath id="6a4c229bba"><path d="M 0.941406 0.957031 L 51.058594 0.957031 L 51.058594 51.074219 L 0.941406 51.074219 Z M 0.941406 0.957031 " clip-rule="nonzero"/></clipPath><clipPath id="a6f3f4a850"><path d="M 26 0.957031 C 12.160156 0.957031 0.941406 12.175781 0.941406 26.015625 C 0.941406 39.855469 12.160156 51.074219 26 51.074219 C 39.839844 51.074219 51.058594 39.855469 51.058594 26.015625 C 51.058594 12.175781 39.839844 0.957031 26 0.957031 Z M 26 0.957031 " clip-rule="nonzero"/></clipPath><clipPath id="0726b48d16"><rect x="0" width="52" y="0" height="52"/></clipPath><clipPath id="cfca93845d"><path d="M 405.277344 540.578125 L 455.394531 540.578125 L 455.394531 590.695312 L 405.277344 590.695312 Z M 405.277344 540.578125 " clip-rule="nonzero"/></clipPath><clipPath id="b989d5bd51"><path d="M 430.335938 540.578125 C 416.496094 540.578125 405.277344 551.796875 405.277344 565.636719 C 405.277344 579.476562 416.496094 590.695312 430.335938 590.695312 C 444.175781 590.695312 455.394531 579.476562 455.394531 565.636719 C 455.394531 551.796875 444.175781 540.578125 430.335938 540.578125 Z M 430.335938 540.578125 " clip-rule="nonzero"/></clipPath><clipPath id="33196d14a6"><path d="M 0.277344 0.578125 L 50.394531 0.578125 L 50.394531 50.695312 L 0.277344 50.695312 Z M 0.277344 0.578125 " clip-rule="nonzero"/></clipPath><clipPath id="493cf5193f"><path d="M 25.335938 0.578125 C 11.496094 0.578125 0.277344 11.796875 0.277344 25.636719 C 0.277344 39.476562 11.496094 50.695312 25.335938 50.695312 C 39.175781 50.695312 50.394531 39.476562 50.394531 25.636719 C 50.394531 11.796875 39.175781 0.578125 25.335938 0.578125 Z M 25.335938 0.578125 " clip-rule="nonzero"/></clipPath><clipPath id="cd4ce03945"><rect x="0" width="51" y="0" height="51"/></clipPath><clipPath id="a27af630c2"><path d="M 405.277344 220.957031 L 455.394531 220.957031 L 455.394531 271.074219 L 405.277344 271.074219 Z M 405.277344 220.957031 " clip-rule="nonzero"/></clipPath><clipPath id="2c6fcf9391"><path d="M 430.335938 220.957031 C 416.496094 220.957031 405.277344 232.175781 405.277344 246.015625 C 405.277344 259.855469 416.496094 271.074219 430.335938 271.074219 C 444.175781 271.074219 455.394531 259.855469 455.394531 246.015625 C 455.394531 232.175781 444.175781 220.957031 430.335938 220.957031 Z M 430.335938 220.957031 " clip-rule="nonzero"/></clipPath><clipPath id="1cdc0a342e"><path d="M 0.277344 0.957031 L 50.394531 0.957031 L 50.394531 51.074219 L 0.277344 51.074219 Z M 0.277344 0.957031 " clip-rule="nonzero"/></clipPath><clipPath id="267dc2347f"><path d="M 25.335938 0.957031 C 11.496094 0.957031 0.277344 12.175781 0.277344 26.015625 C 0.277344 39.855469 11.496094 51.074219 25.335938 51.074219 C 39.175781 51.074219 50.394531 39.855469 50.394531 26.015625 C 50.394531 12.175781 39.175781 0.957031 25.335938 0.957031 Z M 25.335938 0.957031 " clip-rule="nonzero"/></clipPath><clipPath id="30321c2a0f"><rect x="0" width="51" y="0" height="52"/></clipPath></defs><g clip-path="url(#c30ece0c1e)"><g clip-path="url(#2d9afec401)"><g transform="matrix(1, 0, 0, 1, 355, 11)"><g clip-path="url(#58080e6787)"><g clip-path="url(#ee627d9b82)"><g clip-path="url(#797535b3e0)"><path fill="#49a4c2" d="M 0.328125 0.101562 L 148.886719 0.101562 L 148.886719 148.660156 L 0.328125 148.660156 Z M 0.328125 0.101562 " fill-opacity="1" fill-rule="nonzero"/></g></g></g></g></g></g><g clip-path="url(#86f6c70a9f)"><g clip-path="url(#3f5dbcd3a8)"><g transform="matrix(1, 0, 0, 1, 936, 11)"><g clip-path="url(#b74dd577b6)"><g clip-path="url(#b1b331b4af)"><g clip-path="url(#47d2f83e43)"><path fill="#49a4c2" d="M 0.113281 0.101562 L 148.671875 0.101562 L 148.671875 148.660156 L 0.113281 148.660156 Z M 0.113281 0.101562 " fill-opacity="1" fill-rule="nonzero"/></g></g></g></g></g></g><g clip-path="url(#285be5e140)"><g clip-path="url(#95552f6a2a)"><g transform="matrix(1, 0, 0, 1, 936, 650)"><g clip-path="url(#10c03a1396)"><g clip-path="url(#0b1ddc5ced)"><g clip-path="url(#e72f2e68de)"><path fill="#49a4c2" d="M 0.113281 0.339844 L 148.671875 0.339844 L 148.671875 148.898438 L 0.113281 148.898438 Z M 0.113281 0.339844 " fill-opacity="1" fill-rule="nonzero"/></g></g></g></g></g></g><g clip-path="url(#a276e7f273)"><g clip-path="url(#e8ea7378bc)"><g transform="matrix(1, 0, 0, 1, 355, 650)"><g clip-path="url(#6bc47e3426)"><g clip-path="url(#cd031e16e4)"><g clip-path="url(#ee722feb1e)"><path fill="#49a4c2" d="M 0.328125 0.339844 L 148.886719 0.339844 L 148.886719 148.898438 L 0.328125 148.898438 Z M 0.328125 0.339844 " fill-opacity="1" fill-rule="nonzero"/></g></g></g></g></g></g><g clip-path="url(#e23441c30c)"><g clip-path="url(#539bb1361d)"><g transform="matrix(1, 0, 0, 1, 645, 332)"><g clip-path="url(#d1053cd3e5)"><g clip-path="url(#de4aadbfae)"><g clip-path="url(#ad424f97b5)"><path fill="#49a4c2" d="M 0.71875 0.371094 L 149.28125 0.371094 L 149.28125 148.929688 L 0.71875 148.929688 Z M 0.71875 0.371094 " fill-opacity="1" fill-rule="nonzero"/></g></g></g></g></g></g><g clip-path="url(#63d4ba682d)"><g clip-path="url(#f8f156864a)"><g transform="matrix(1, 0, 0, 1, 960, 356)"><g clip-path="url(#fa3981421a)"><g clip-path="url(#5e2226b374)"><g clip-path="url(#df27d570bf)"><path fill="#49a4c2" d="M 0.273438 0.53125 L 100.507812 0.53125 L 100.507812 100.769531 L 0.273438 100.769531 Z M 0.273438 0.53125 " fill-opacity="1" fill-rule="nonzero"/></g></g></g></g></g></g><g clip-path="url(#3e7ac287be)"><g clip-path="url(#1df6c1bc98)"><g transform="matrix(1, 0, 0, 1, 814, 195)"><g clip-path="url(#ecac67b40b)"><g clip-path="url(#ab1e47f55f)"><g clip-path="url(#9aa0a4c177)"><path fill="#49a4c2" d="M 0.261719 0.898438 L 100.496094 0.898438 L 100.496094 101.132812 L 0.261719 101.132812 Z M 0.261719 0.898438 " fill-opacity="1" fill-rule="nonzero"/></g></g></g></g></g></g><g clip-path="url(#c72d038177)"><g clip-path="url(#306d24bc6c)"><g transform="matrix(1, 0, 0, 1, 525, 195)"><g clip-path="url(#5882c1d520)"><g clip-path="url(#c138ace1b7)"><g clip-path="url(#1df5c09b90)"><path fill="#49a4c2" d="M 0.503906 0.898438 L 100.738281 0.898438 L 100.738281 101.132812 L 0.503906 101.132812 Z M 0.503906 0.898438 " fill-opacity="1" fill-rule="nonzero"/></g></g></g></g></g></g><g clip-path="url(#8ed1152ef7)"><g clip-path="url(#d10a146985)"><g transform="matrix(1, 0, 0, 1, 525, 516)"><g clip-path="url(#149475dfdd)"><g clip-path="url(#9efcc37738)"><g clip-path="url(#47ebc903d2)"><path fill="#49a4c2" d="M 0.503906 0.882812 L 100.738281 0.882812 L 100.738281 101.117188 L 0.503906 101.117188 Z M 0.503906 0.882812 " fill-opacity="1" fill-rule="nonzero"/></g></g></g></g></g></g><g clip-path="url(#2bf521bce1)"><g clip-path="url(#e3bd8c3357)"><g transform="matrix(1, 0, 0, 1, 814, 516)"><g clip-path="url(#1967d5be05)"><g clip-path="url(#b4ee90c324)"><g clip-path="url(#c44676922b)"><path fill="#49a4c2" d="M 0.261719 0.882812 L 100.496094 0.882812 L 100.496094 101.117188 L 0.261719 101.117188 Z M 0.261719 0.882812 " fill-opacity="1" fill-rule="nonzero"/></g></g></g></g></g></g><g clip-path="url(#d801e3bb6d)"><g clip-path="url(#9e41addee6)"><g transform="matrix(1, 0, 0, 1, 379, 356)"><g clip-path="url(#9de5bab094)"><g clip-path="url(#75b578c20c)"><g clip-path="url(#6bcd8a0115)"><path fill="#49a4c2" d="M 0.492188 0.53125 L 100.726562 0.53125 L 100.726562 100.769531 L 0.492188 100.769531 Z M 0.492188 0.53125 " fill-opacity="1" fill-rule="nonzero"/></g></g></g></g></g></g><g clip-path="url(#4a85ba1da9)"><g clip-path="url(#2cfa43bd3a)"><g transform="matrix(1, 0, 0, 1, 669, 674)"><g clip-path="url(#e2d37e548c)"><g clip-path="url(#ec0b5e4eb9)"><g clip-path="url(#575e78b984)"><path fill="#49a4c2" d="M 0.882812 0.503906 L 101.117188 0.503906 L 101.117188 100.738281 L 0.882812 100.738281 Z M 0.882812 0.503906 " fill-opacity="1" fill-rule="nonzero"/></g></g></g></g></g></g><g clip-path="url(#4c7d1db8d6)"><g clip-path="url(#d00797e85d)"><g transform="matrix(1, 0, 0, 1, 669, 35)"><g clip-path="url(#beacc32a92)"><g clip-path="url(#4501441414)"><g clip-path="url(#b1e07ae80d)"><path fill="#49a4c2" d="M 0.882812 0.261719 L 101.117188 0.261719 L 101.117188 100.496094 L 0.882812 100.496094 Z M 0.882812 0.261719 " fill-opacity="1" fill-rule="nonzero"/></g></g></g></g></g></g><g clip-path="url(#89713a2b18)"><g clip-path="url(#cbfbbd08ac)"><g transform="matrix(1, 0, 0, 1, 549, 60)"><g clip-path="url(#f641af2be4)"><g clip-path="url(#576ff31f40)"><g clip-path="url(#c45b1fb235)"><path fill="#49a4c2" d="M 0.773438 0.320312 L 50.890625 0.320312 L 50.890625 50.4375 L 0.773438 50.4375 Z M 0.773438 0.320312 " fill-opacity="1" fill-rule="nonzero"/></g></g></g></g></g></g><g clip-path="url(#55cdc5067f)"><g clip-path="url(#361762010d)"><g transform="matrix(1, 0, 0, 1, 839, 60)"><g clip-path="url(#e537a4b4d2)"><g clip-path="url(#7da92bdb32)"><g clip-path="url(#0dc833fb96)"><path fill="#49a4c2" d="M 0.320312 0.320312 L 50.4375 0.320312 L 50.4375 50.4375 L 0.320312 50.4375 Z M 0.320312 0.320312 " fill-opacity="1" fill-rule="nonzero"/></g></g></g></g></g></g><g clip-path="url(#8ad893646c)"><g clip-path="url(#2fbc6922db)"><g transform="matrix(1, 0, 0, 1, 839, 381)"><g clip-path="url(#0336dbc27d)"><g clip-path="url(#b4b569dc3f)"><g clip-path="url(#df7fa2b51e)"><path fill="#49a4c2" d="M 0.320312 0.589844 L 50.4375 0.589844 L 50.4375 50.710938 L 0.320312 50.710938 Z M 0.320312 0.589844 " fill-opacity="1" fill-rule="nonzero"/></g></g></g></g></g></g><g clip-path="url(#da3c568158)"><g clip-path="url(#51d6b911cd)"><g transform="matrix(1, 0, 0, 1, 839, 699)"><g clip-path="url(#370a8a6a73)"><g clip-path="url(#238d5d0494)"><g clip-path="url(#11d2c9ac54)"><path fill="#49a4c2" d="M 0.320312 0.5625 L 50.4375 0.5625 L 50.4375 50.679688 L 0.320312 50.679688 Z M 0.320312 0.5625 " fill-opacity="1" fill-rule="nonzero"/></g></g></g></g></g></g><g clip-path="url(#1ecaf25581)"><g clip-path="url(#be5776e0ec)"><g transform="matrix(1, 0, 0, 1, 550, 699)"><g clip-path="url(#1785e1a7f0)"><g clip-path="url(#54d8939b1b)"><g clip-path="url(#4ce0270938)"><path fill="#49a4c2" d="M 0.5625 0.5625 L 50.679688 0.5625 L 50.679688 50.679688 L 0.5625 50.679688 Z M 0.5625 0.5625 " fill-opacity="1" fill-rule="nonzero"/></g></g></g></g></g></g><g clip-path="url(#353f0d6c49)"><g clip-path="url(#f34302d28d)"><g transform="matrix(1, 0, 0, 1, 550, 381)"><g clip-path="url(#d049cde813)"><g clip-path="url(#1e1870a783)"><g clip-path="url(#bcb8c6cbff)"><path fill="#49a4c2" d="M 0.5625 0.589844 L 50.679688 0.589844 L 50.679688 50.710938 L 0.5625 50.710938 Z M 0.5625 0.589844 " fill-opacity="1" fill-rule="nonzero"/></g></g></g></g></g></g><g clip-path="url(#b406a338e7)"><g clip-path="url(#fa1784b822)"><g transform="matrix(1, 0, 0, 1, 985, 540)"><g clip-path="url(#4a7be199e1)"><g clip-path="url(#2174487ef1)"><g clip-path="url(#bf2e0bc5c7)"><path fill="#49a4c2" d="M 0.332031 0.578125 L 50.449219 0.578125 L 50.449219 50.695312 L 0.332031 50.695312 Z M 0.332031 0.578125 " fill-opacity="1" fill-rule="nonzero"/></g></g></g></g></g></g><g clip-path="url(#988d585c68)"><g clip-path="url(#dfc17ef4ca)"><g transform="matrix(1, 0, 0, 1, 985, 220)"><g clip-path="url(#6eb9e01cde)"><g clip-path="url(#54f02691f4)"><g clip-path="url(#1f383a85e9)"><path fill="#49a4c2" d="M 0.332031 0.957031 L 50.449219 0.957031 L 50.449219 51.074219 L 0.332031 51.074219 Z M 0.332031 0.957031 " fill-opacity="1" fill-rule="nonzero"/></g></g></g></g></g></g><g clip-path="url(#7823e1979b)"><g clip-path="url(#aec8f83324)"><g transform="matrix(1, 0, 0, 1, 694, 540)"><g clip-path="url(#42f83c76ac)"><g clip-path="url(#e134e32c0c)"><g clip-path="url(#0621692b68)"><path fill="#49a4c2" d="M 0.941406 0.578125 L 51.058594 0.578125 L 51.058594 50.695312 L 0.941406 50.695312 Z M 0.941406 0.578125 " fill-opacity="1" fill-rule="nonzero"/></g></g></g></g></g></g><g clip-path="url(#9bc70f8eca)"><g clip-path="url(#f25b279159)"><g transform="matrix(1, 0, 0, 1, 694, 220)"><g clip-path="url(#0726b48d16)"><g clip-path="url(#6a4c229bba)"><g clip-path="url(#a6f3f4a850)"><path fill="#49a4c2" d="M 0.941406 0.957031 L 51.058594 0.957031 L 51.058594 51.074219 L 0.941406 51.074219 Z M 0.941406 0.957031 " fill-opacity="1" fill-rule="nonzero"/></g></g></g></g></g></g><g clip-path="url(#cfca93845d)"><g clip-path="url(#b989d5bd51)"><g transform="matrix(1, 0, 0, 1, 405, 540)"><g clip-path="url(#cd4ce03945)"><g clip-path="url(#33196d14a6)"><g clip-path="url(#493cf5193f)"><path fill="#49a4c2" d="M 0.277344 0.578125 L 50.394531 0.578125 L 50.394531 50.695312 L 0.277344 50.695312 Z M 0.277344 0.578125 " fill-opacity="1" fill-rule="nonzero"/></g></g></g></g></g></g><g clip-path="url(#a27af630c2)"><g clip-path="url(#2c6fcf9391)"><g transform="matrix(1, 0, 0, 1, 405, 220)"><g clip-path="url(#30321c2a0f)"><g clip-path="url(#1cdc0a342e)"><g clip-path="url(#267dc2347f)"><path fill="#49a4c2" d="M 0.277344 0.957031 L 50.394531 0.957031 L 50.394531 51.074219 L 0.277344 51.074219 Z M 0.277344 0.957031 " fill-opacity="1" fill-rule="nonzero"/></g></g></g></g></g></g></svg>