<svg xmlns="http://www.w3.org/2000/svg" xmlns:xlink="http://www.w3.org/1999/xlink" viewBox="-10 -200 1460 700" preserveAspectRatio="xMidYMid meet" version="1.0"><defs><g/><clipPath id="e645b3749e"><path d="M 1.167969 60.429688 L 66.1875 60.429688 L 66.1875 125.453125 L 1.167969 125.453125 Z M 1.167969 60.429688 " clip-rule="nonzero"/></clipPath><clipPath id="741e1d9e87"><path d="M 33.679688 60.429688 C 15.722656 60.429688 1.167969 74.984375 1.167969 92.941406 C 1.167969 110.894531 15.722656 125.453125 33.679688 125.453125 C 51.632812 125.453125 66.1875 110.894531 66.1875 92.941406 C 66.1875 74.984375 51.632812 60.429688 33.679688 60.429688 Z M 33.679688 60.429688 " clip-rule="nonzero"/></clipPath><clipPath id="d6bea09373"><path d="M 0.167969 0.429688 L 65.1875 0.429688 L 65.1875 65.453125 L 0.167969 65.453125 Z M 0.167969 0.429688 " clip-rule="nonzero"/></clipPath><clipPath id="01cfed8a29"><path d="M 32.679688 0.429688 C 14.722656 0.429688 0.167969 14.984375 0.167969 32.941406 C 0.167969 50.894531 14.722656 65.453125 32.679688 65.453125 C 50.632812 65.453125 65.1875 50.894531 65.1875 32.941406 C 65.1875 14.984375 50.632812 0.429688 32.679688 0.429688 Z M 32.679688 0.429688 " clip-rule="nonzero"/></clipPath><clipPath id="7114e3dbd3"><rect x="0" width="66" y="0" height="66"/></clipPath><clipPath id="3d9c3f7b75"><path d="M 255.367188 60.429688 L 320.386719 60.429688 L 320.386719 125.453125 L 255.367188 125.453125 Z M 255.367188 60.429688 " clip-rule="nonzero"/></clipPath><clipPath id="3ede23dda8"><path d="M 287.878906 60.429688 C 269.921875 60.429688 255.367188 74.984375 255.367188 92.941406 C 255.367188 110.894531 269.921875 125.453125 287.878906 125.453125 C 305.832031 125.453125 320.386719 110.894531 320.386719 92.941406 C 320.386719 74.984375 305.832031 60.429688 287.878906 60.429688 Z M 287.878906 60.429688 " clip-rule="nonzero"/></clipPath><clipPath id="5ff45463a5"><path d="M 0.367188 0.429688 L 65.386719 0.429688 L 65.386719 65.453125 L 0.367188 65.453125 Z M 0.367188 0.429688 " clip-rule="nonzero"/></clipPath><clipPath id="da3c222086"><path d="M 32.878906 0.429688 C 14.921875 0.429688 0.367188 14.984375 0.367188 32.941406 C 0.367188 50.894531 14.921875 65.453125 32.878906 65.453125 C 50.832031 65.453125 65.386719 50.894531 65.386719 32.941406 C 65.386719 14.984375 50.832031 0.429688 32.878906 0.429688 Z M 32.878906 0.429688 " clip-rule="nonzero"/></clipPath><clipPath id="683973c314"><rect x="0" width="66" y="0" height="66"/></clipPath><clipPath id="72b46e23b5"><path d="M 255.367188 340.214844 L 320.386719 340.214844 L 320.386719 405.238281 L 255.367188 405.238281 Z M 255.367188 340.214844 " clip-rule="nonzero"/></clipPath><clipPath id="ac8a340b3c"><path d="M 287.878906 340.214844 C 269.921875 340.214844 255.367188 354.769531 255.367188 372.726562 C 255.367188 390.683594 269.921875 405.238281 287.878906 405.238281 C 305.832031 405.238281 320.386719 390.683594 320.386719 372.726562 C 320.386719 354.769531 305.832031 340.214844 287.878906 340.214844 Z M 287.878906 340.214844 " clip-rule="nonzero"/></clipPath><clipPath id="338fecc52d"><path d="M 0.367188 0.214844 L 65.386719 0.214844 L 65.386719 65.238281 L 0.367188 65.238281 Z M 0.367188 0.214844 " clip-rule="nonzero"/></clipPath><clipPath id="f7463e1d16"><path d="M 32.878906 0.214844 C 14.921875 0.214844 0.367188 14.769531 0.367188 32.726562 C 0.367188 50.683594 14.921875 65.238281 32.878906 65.238281 C 50.832031 65.238281 65.386719 50.683594 65.386719 32.726562 C 65.386719 14.769531 50.832031 0.214844 32.878906 0.214844 Z M 32.878906 0.214844 " clip-rule="nonzero"/></clipPath><clipPath id="8be1de0e5b"><rect x="0" width="66" y="0" height="66"/></clipPath><clipPath id="4acba745ad"><path d="M 1.167969 340.214844 L 66.1875 340.214844 L 66.1875 405.238281 L 1.167969 405.238281 Z M 1.167969 340.214844 " clip-rule="nonzero"/></clipPath><clipPath id="0a51f8c56f"><path d="M 33.679688 340.214844 C 15.722656 340.214844 1.167969 354.769531 1.167969 372.726562 C 1.167969 390.683594 15.722656 405.238281 33.679688 405.238281 C 51.632812 405.238281 66.1875 390.683594 66.1875 372.726562 C 66.1875 354.769531 51.632812 340.214844 33.679688 340.214844 Z M 33.679688 340.214844 " clip-rule="nonzero"/></clipPath><clipPath id="f3e8b255a2"><path d="M 0.167969 0.214844 L 65.1875 0.214844 L 65.1875 65.238281 L 0.167969 65.238281 Z M 0.167969 0.214844 " clip-rule="nonzero"/></clipPath><clipPath id="d38aa4a07f"><path d="M 32.679688 0.214844 C 14.722656 0.214844 0.167969 14.769531 0.167969 32.726562 C 0.167969 50.683594 14.722656 65.238281 32.679688 65.238281 C 50.632812 65.238281 65.1875 50.683594 65.1875 32.726562 C 65.1875 14.769531 50.632812 0.214844 32.679688 0.214844 Z M 32.679688 0.214844 " clip-rule="nonzero"/></clipPath><clipPath id="e22a3b65fa"><rect x="0" width="66" y="0" height="66"/></clipPath><clipPath id="9af426abfa"><path d="M 128.265625 201.046875 L 193.289062 201.046875 L 193.289062 266.066406 L 128.265625 266.066406 Z M 128.265625 201.046875 " clip-rule="nonzero"/></clipPath><clipPath id="565eb218bb"><path d="M 160.777344 201.046875 C 142.820312 201.046875 128.265625 215.601562 128.265625 233.554688 C 128.265625 251.511719 142.820312 266.066406 160.777344 266.066406 C 178.734375 266.066406 193.289062 251.511719 193.289062 233.554688 C 193.289062 215.601562 178.734375 201.046875 160.777344 201.046875 Z M 160.777344 201.046875 " clip-rule="nonzero"/></clipPath><clipPath id="e834f2c481"><path d="M 0.265625 0.046875 L 65.289062 0.046875 L 65.289062 65.066406 L 0.265625 65.066406 Z M 0.265625 0.046875 " clip-rule="nonzero"/></clipPath><clipPath id="d8bf9c8251"><path d="M 32.777344 0.046875 C 14.820312 0.046875 0.265625 14.601562 0.265625 32.554688 C 0.265625 50.511719 14.820312 65.066406 32.777344 65.066406 C 50.734375 65.066406 65.289062 50.511719 65.289062 32.554688 C 65.289062 14.601562 50.734375 0.046875 32.777344 0.046875 Z M 32.777344 0.046875 " clip-rule="nonzero"/></clipPath><clipPath id="ac08e292da"><rect x="0" width="66" y="0" height="66"/></clipPath><clipPath id="e6317a6792"><path d="M 265.941406 211.621094 L 309.8125 211.621094 L 309.8125 255.492188 L 265.941406 255.492188 Z M 265.941406 211.621094 " clip-rule="nonzero"/></clipPath><clipPath id="66c8b92acc"><path d="M 287.878906 211.621094 C 275.761719 211.621094 265.941406 221.441406 265.941406 233.554688 C 265.941406 245.671875 275.761719 255.492188 287.878906 255.492188 C 299.992188 255.492188 309.8125 245.671875 309.8125 233.554688 C 309.8125 221.441406 299.992188 211.621094 287.878906 211.621094 Z M 287.878906 211.621094 " clip-rule="nonzero"/></clipPath><clipPath id="0dc5db706d"><path d="M 0.941406 0.621094 L 44.8125 0.621094 L 44.8125 44.492188 L 0.941406 44.492188 Z M 0.941406 0.621094 " clip-rule="nonzero"/></clipPath><clipPath id="43508a1071"><path d="M 22.878906 0.621094 C 10.761719 0.621094 0.941406 10.441406 0.941406 22.554688 C 0.941406 34.671875 10.761719 44.492188 22.878906 44.492188 C 34.992188 44.492188 44.8125 34.671875 44.8125 22.554688 C 44.8125 10.441406 34.992188 0.621094 22.878906 0.621094 Z M 22.878906 0.621094 " clip-rule="nonzero"/></clipPath><clipPath id="592efc623c"><rect x="0" width="45" y="0" height="45"/></clipPath><clipPath id="aca09a9928"><path d="M 202.035156 141.3125 L 245.90625 141.3125 L 245.90625 185.183594 L 202.035156 185.183594 Z M 202.035156 141.3125 " clip-rule="nonzero"/></clipPath><clipPath id="3fbf1f2e8c"><path d="M 223.96875 141.3125 C 211.855469 141.3125 202.035156 151.132812 202.035156 163.25 C 202.035156 175.363281 211.855469 185.183594 223.96875 185.183594 C 236.085938 185.183594 245.90625 175.363281 245.90625 163.25 C 245.90625 151.132812 236.085938 141.3125 223.96875 141.3125 Z M 223.96875 141.3125 " clip-rule="nonzero"/></clipPath><clipPath id="a451fe90ec"><path d="M 0.0351562 0.3125 L 43.90625 0.3125 L 43.90625 44.183594 L 0.0351562 44.183594 Z M 0.0351562 0.3125 " clip-rule="nonzero"/></clipPath><clipPath id="d8868da249"><path d="M 21.96875 0.3125 C 9.855469 0.3125 0.0351562 10.132812 0.0351562 22.25 C 0.0351562 34.363281 9.855469 44.183594 21.96875 44.183594 C 34.085938 44.183594 43.90625 34.363281 43.90625 22.25 C 43.90625 10.132812 34.085938 0.3125 21.96875 0.3125 Z M 21.96875 0.3125 " clip-rule="nonzero"/></clipPath><clipPath id="afd58a0a84"><rect x="0" width="44" y="0" height="45"/></clipPath><clipPath id="e579e484c1"><path d="M 75.648438 141.3125 L 119.519531 141.3125 L 119.519531 185.183594 L 75.648438 185.183594 Z M 75.648438 141.3125 " clip-rule="nonzero"/></clipPath><clipPath id="b05992a338"><path d="M 97.585938 141.3125 C 85.46875 141.3125 75.648438 151.132812 75.648438 163.25 C 75.648438 175.363281 85.46875 185.183594 97.585938 185.183594 C 109.699219 185.183594 119.519531 175.363281 119.519531 163.25 C 119.519531 151.132812 109.699219 141.3125 97.585938 141.3125 Z M 97.585938 141.3125 " clip-rule="nonzero"/></clipPath><clipPath id="a8dc002fad"><path d="M 0.648438 0.3125 L 44.519531 0.3125 L 44.519531 44.183594 L 0.648438 44.183594 Z M 0.648438 0.3125 " clip-rule="nonzero"/></clipPath><clipPath id="305f9e357c"><path d="M 22.585938 0.3125 C 10.46875 0.3125 0.648438 10.132812 0.648438 22.25 C 0.648438 34.363281 10.46875 44.183594 22.585938 44.183594 C 34.699219 44.183594 44.519531 34.363281 44.519531 22.25 C 44.519531 10.132812 34.699219 0.3125 22.585938 0.3125 Z M 22.585938 0.3125 " clip-rule="nonzero"/></clipPath><clipPath id="8633759d32"><rect x="0" width="45" y="0" height="45"/></clipPath><clipPath id="3395980e1d"><path d="M 75.648438 281.800781 L 119.519531 281.800781 L 119.519531 325.675781 L 75.648438 325.675781 Z M 75.648438 281.800781 " clip-rule="nonzero"/></clipPath><clipPath id="3a26896130"><path d="M 97.585938 281.800781 C 85.46875 281.800781 75.648438 291.625 75.648438 303.738281 C 75.648438 315.851562 85.46875 325.675781 97.585938 325.675781 C 109.699219 325.675781 119.519531 315.851562 119.519531 303.738281 C 119.519531 291.625 109.699219 281.800781 97.585938 281.800781 Z M 97.585938 281.800781 " clip-rule="nonzero"/></clipPath><clipPath id="dbd0e29074"><path d="M 0.648438 0.800781 L 44.519531 0.800781 L 44.519531 44.675781 L 0.648438 44.675781 Z M 0.648438 0.800781 " clip-rule="nonzero"/></clipPath><clipPath id="42970e31f4"><path d="M 22.585938 0.800781 C 10.46875 0.800781 0.648438 10.625 0.648438 22.738281 C 0.648438 34.851562 10.46875 44.675781 22.585938 44.675781 C 34.699219 44.675781 44.519531 34.851562 44.519531 22.738281 C 44.519531 10.625 34.699219 0.800781 22.585938 0.800781 Z M 22.585938 0.800781 " clip-rule="nonzero"/></clipPath><clipPath id="eb178c0a6f"><rect x="0" width="45" y="0" height="45"/></clipPath><clipPath id="f1f31407e8"><path d="M 202.035156 281.800781 L 245.90625 281.800781 L 245.90625 325.675781 L 202.035156 325.675781 Z M 202.035156 281.800781 " clip-rule="nonzero"/></clipPath><clipPath id="43b76447b0"><path d="M 223.96875 281.800781 C 211.855469 281.800781 202.035156 291.625 202.035156 303.738281 C 202.035156 315.851562 211.855469 325.675781 223.96875 325.675781 C 236.085938 325.675781 245.90625 315.851562 245.90625 303.738281 C 245.90625 291.625 236.085938 281.800781 223.96875 281.800781 Z M 223.96875 281.800781 " clip-rule="nonzero"/></clipPath><clipPath id="57106da13a"><path d="M 0.0351562 0.800781 L 43.90625 0.800781 L 43.90625 44.675781 L 0.0351562 44.675781 Z M 0.0351562 0.800781 " clip-rule="nonzero"/></clipPath><clipPath id="0449fec272"><path d="M 21.96875 0.800781 C 9.855469 0.800781 0.0351562 10.625 0.0351562 22.738281 C 0.0351562 34.851562 9.855469 44.675781 21.96875 44.675781 C 34.085938 44.675781 43.90625 34.851562 43.90625 22.738281 C 43.90625 10.625 34.085938 0.800781 21.96875 0.800781 Z M 21.96875 0.800781 " clip-rule="nonzero"/></clipPath><clipPath id="906f187fa9"><rect x="0" width="44" y="0" height="45"/></clipPath><clipPath id="70eeb38a2e"><path d="M 11.742188 211.621094 L 55.613281 211.621094 L 55.613281 255.492188 L 11.742188 255.492188 Z M 11.742188 211.621094 " clip-rule="nonzero"/></clipPath><clipPath id="1f719312e8"><path d="M 33.679688 211.621094 C 21.5625 211.621094 11.742188 221.441406 11.742188 233.554688 C 11.742188 245.671875 21.5625 255.492188 33.679688 255.492188 C 45.792969 255.492188 55.613281 245.671875 55.613281 233.554688 C 55.613281 221.441406 45.792969 211.621094 33.679688 211.621094 Z M 33.679688 211.621094 " clip-rule="nonzero"/></clipPath><clipPath id="a52633f0b6"><path d="M 0.742188 0.621094 L 44.613281 0.621094 L 44.613281 44.492188 L 0.742188 44.492188 Z M 0.742188 0.621094 " clip-rule="nonzero"/></clipPath><clipPath id="18141119cf"><path d="M 22.679688 0.621094 C 10.5625 0.621094 0.742188 10.441406 0.742188 22.554688 C 0.742188 34.671875 10.5625 44.492188 22.679688 44.492188 C 34.792969 44.492188 44.613281 34.671875 44.613281 22.554688 C 44.613281 10.441406 34.792969 0.621094 22.679688 0.621094 Z M 22.679688 0.621094 " clip-rule="nonzero"/></clipPath><clipPath id="711353ccec"><rect x="0" width="45" y="0" height="45"/></clipPath><clipPath id="b3f6808398"><path d="M 138.839844 350.789062 L 182.714844 350.789062 L 182.714844 394.664062 L 138.839844 394.664062 Z M 138.839844 350.789062 " clip-rule="nonzero"/></clipPath><clipPath id="029cde980b"><path d="M 160.777344 350.789062 C 148.664062 350.789062 138.839844 360.613281 138.839844 372.726562 C 138.839844 384.839844 148.664062 394.664062 160.777344 394.664062 C 172.890625 394.664062 182.714844 384.839844 182.714844 372.726562 C 182.714844 360.613281 172.890625 350.789062 160.777344 350.789062 Z M 160.777344 350.789062 " clip-rule="nonzero"/></clipPath><clipPath id="a0d6df3ca8"><path d="M 0.839844 0.789062 L 44.714844 0.789062 L 44.714844 44.664062 L 0.839844 44.664062 Z M 0.839844 0.789062 " clip-rule="nonzero"/></clipPath><clipPath id="567b0aea17"><path d="M 22.777344 0.789062 C 10.664062 0.789062 0.839844 10.613281 0.839844 22.726562 C 0.839844 34.839844 10.664062 44.664062 22.777344 44.664062 C 34.890625 44.664062 44.714844 34.839844 44.714844 22.726562 C 44.714844 10.613281 34.890625 0.789062 22.777344 0.789062 Z M 22.777344 0.789062 " clip-rule="nonzero"/></clipPath><clipPath id="5941ed2258"><rect x="0" width="45" y="0" height="45"/></clipPath><clipPath id="9ef7cdf765"><path d="M 138.839844 71.003906 L 182.714844 71.003906 L 182.714844 114.878906 L 138.839844 114.878906 Z M 138.839844 71.003906 " clip-rule="nonzero"/></clipPath><clipPath id="b4addd905d"><path d="M 160.777344 71.003906 C 148.664062 71.003906 138.839844 80.828125 138.839844 92.941406 C 138.839844 105.054688 148.664062 114.878906 160.777344 114.878906 C 172.890625 114.878906 182.714844 105.054688 182.714844 92.941406 C 182.714844 80.828125 172.890625 71.003906 160.777344 71.003906 Z M 160.777344 71.003906 " clip-rule="nonzero"/></clipPath><clipPath id="5f9fd6e081"><path d="M 0.839844 0.00390625 L 44.714844 0.00390625 L 44.714844 43.878906 L 0.839844 43.878906 Z M 0.839844 0.00390625 " clip-rule="nonzero"/></clipPath><clipPath id="db37872eee"><path d="M 22.777344 0.00390625 C 10.664062 0.00390625 0.839844 9.828125 0.839844 21.941406 C 0.839844 34.054688 10.664062 43.878906 22.777344 43.878906 C 34.890625 43.878906 44.714844 34.054688 44.714844 21.941406 C 44.714844 9.828125 34.890625 0.00390625 22.777344 0.00390625 Z M 22.777344 0.00390625 " clip-rule="nonzero"/></clipPath><clipPath id="c8fe4d44be"><rect x="0" width="45" y="0" height="44"/></clipPath><clipPath id="7955ea4189"><path d="M 86.273438 81.972656 L 108.207031 81.972656 L 108.207031 103.910156 L 86.273438 103.910156 Z M 86.273438 81.972656 " clip-rule="nonzero"/></clipPath><clipPath id="f86f8649be"><path d="M 97.238281 81.972656 C 91.183594 81.972656 86.273438 86.882812 86.273438 92.941406 C 86.273438 99 91.183594 103.910156 97.238281 103.910156 C 103.296875 103.910156 108.207031 99 108.207031 92.941406 C 108.207031 86.882812 103.296875 81.972656 97.238281 81.972656 Z M 97.238281 81.972656 " clip-rule="nonzero"/></clipPath><clipPath id="b5ca146dc1"><path d="M 0.273438 0.972656 L 22.207031 0.972656 L 22.207031 22.910156 L 0.273438 22.910156 Z M 0.273438 0.972656 " clip-rule="nonzero"/></clipPath><clipPath id="b8220749d3"><path d="M 11.238281 0.972656 C 5.183594 0.972656 0.273438 5.882812 0.273438 11.941406 C 0.273438 18 5.183594 22.910156 11.238281 22.910156 C 17.296875 22.910156 22.207031 18 22.207031 11.941406 C 22.207031 5.882812 17.296875 0.972656 11.238281 0.972656 Z M 11.238281 0.972656 " clip-rule="nonzero"/></clipPath><clipPath id="c0a28c4acc"><rect x="0" width="23" y="0" height="23"/></clipPath><clipPath id="af2bc151e1"><path d="M 213.003906 81.972656 L 234.9375 81.972656 L 234.9375 103.910156 L 213.003906 103.910156 Z M 213.003906 81.972656 " clip-rule="nonzero"/></clipPath><clipPath id="4faac322da"><path d="M 223.96875 81.972656 C 217.914062 81.972656 213.003906 86.882812 213.003906 92.941406 C 213.003906 99 217.914062 103.910156 223.96875 103.910156 C 230.027344 103.910156 234.9375 99 234.9375 92.941406 C 234.9375 86.882812 230.027344 81.972656 223.96875 81.972656 Z M 223.96875 81.972656 " clip-rule="nonzero"/></clipPath><clipPath id="6ac3c92cb1"><path d="M 0.00390625 0.972656 L 21.9375 0.972656 L 21.9375 22.910156 L 0.00390625 22.910156 Z M 0.00390625 0.972656 " clip-rule="nonzero"/></clipPath><clipPath id="2284592c13"><path d="M 10.96875 0.972656 C 4.914062 0.972656 0.00390625 5.882812 0.00390625 11.941406 C 0.00390625 18 4.914062 22.910156 10.96875 22.910156 C 17.027344 22.910156 21.9375 18 21.9375 11.941406 C 21.9375 5.882812 17.027344 0.972656 10.96875 0.972656 Z M 10.96875 0.972656 " clip-rule="nonzero"/></clipPath><clipPath id="c2726c3120"><rect x="0" width="22" y="0" height="23"/></clipPath><clipPath id="876ebb32e9"><path d="M 213.003906 222.589844 L 234.9375 222.589844 L 234.9375 244.523438 L 213.003906 244.523438 Z M 213.003906 222.589844 " clip-rule="nonzero"/></clipPath><clipPath id="91e6bf2b86"><path d="M 223.96875 222.589844 C 217.914062 222.589844 213.003906 227.5 213.003906 233.554688 C 213.003906 239.613281 217.914062 244.523438 223.96875 244.523438 C 230.027344 244.523438 234.9375 239.613281 234.9375 233.554688 C 234.9375 227.5 230.027344 222.589844 223.96875 222.589844 Z M 223.96875 222.589844 " clip-rule="nonzero"/></clipPath><clipPath id="e675ece92c"><path d="M 0.00390625 0.589844 L 21.9375 0.589844 L 21.9375 22.523438 L 0.00390625 22.523438 Z M 0.00390625 0.589844 " clip-rule="nonzero"/></clipPath><clipPath id="6ab9fce693"><path d="M 10.96875 0.589844 C 4.914062 0.589844 0.00390625 5.5 0.00390625 11.554688 C 0.00390625 17.613281 4.914062 22.523438 10.96875 22.523438 C 17.027344 22.523438 21.9375 17.613281 21.9375 11.554688 C 21.9375 5.5 17.027344 0.589844 10.96875 0.589844 Z M 10.96875 0.589844 " clip-rule="nonzero"/></clipPath><clipPath id="0e35889315"><rect x="0" width="22" y="0" height="23"/></clipPath><clipPath id="77cdac6ef6"><path d="M 213.003906 361.757812 L 234.9375 361.757812 L 234.9375 383.695312 L 213.003906 383.695312 Z M 213.003906 361.757812 " clip-rule="nonzero"/></clipPath><clipPath id="2e3a5dee69"><path d="M 223.96875 361.757812 C 217.914062 361.757812 213.003906 366.667969 213.003906 372.726562 C 213.003906 378.785156 217.914062 383.695312 223.96875 383.695312 C 230.027344 383.695312 234.9375 378.785156 234.9375 372.726562 C 234.9375 366.667969 230.027344 361.757812 223.96875 361.757812 Z M 223.96875 361.757812 " clip-rule="nonzero"/></clipPath><clipPath id="cb6f842951"><path d="M 0.00390625 0.757812 L 21.9375 0.757812 L 21.9375 22.695312 L 0.00390625 22.695312 Z M 0.00390625 0.757812 " clip-rule="nonzero"/></clipPath><clipPath id="9b46292a88"><path d="M 10.96875 0.757812 C 4.914062 0.757812 0.00390625 5.667969 0.00390625 11.726562 C 0.00390625 17.785156 4.914062 22.695312 10.96875 22.695312 C 17.027344 22.695312 21.9375 17.785156 21.9375 11.726562 C 21.9375 5.667969 17.027344 0.757812 10.96875 0.757812 Z M 10.96875 0.757812 " clip-rule="nonzero"/></clipPath><clipPath id="f6c88f6834"><rect x="0" width="22" y="0" height="23"/></clipPath><clipPath id="60e5e529c2"><path d="M 86.617188 361.757812 L 108.554688 361.757812 L 108.554688 383.695312 L 86.617188 383.695312 Z M 86.617188 361.757812 " clip-rule="nonzero"/></clipPath><clipPath id="c56f654c4a"><path d="M 97.585938 361.757812 C 91.527344 361.757812 86.617188 366.667969 86.617188 372.726562 C 86.617188 378.785156 91.527344 383.695312 97.585938 383.695312 C 103.640625 383.695312 108.554688 378.785156 108.554688 372.726562 C 108.554688 366.667969 103.640625 361.757812 97.585938 361.757812 Z M 97.585938 361.757812 " clip-rule="nonzero"/></clipPath><clipPath id="4344f087ce"><path d="M 0.617188 0.757812 L 22.554688 0.757812 L 22.554688 22.695312 L 0.617188 22.695312 Z M 0.617188 0.757812 " clip-rule="nonzero"/></clipPath><clipPath id="21d975969a"><path d="M 11.585938 0.757812 C 5.527344 0.757812 0.617188 5.667969 0.617188 11.726562 C 0.617188 17.785156 5.527344 22.695312 11.585938 22.695312 C 17.640625 22.695312 22.554688 17.785156 22.554688 11.726562 C 22.554688 5.667969 17.640625 0.757812 11.585938 0.757812 Z M 11.585938 0.757812 " clip-rule="nonzero"/></clipPath><clipPath id="bcba12f8a4"><rect x="0" width="23" y="0" height="23"/></clipPath><clipPath id="a7fb778d08"><path d="M 86.617188 222.589844 L 108.554688 222.589844 L 108.554688 244.523438 L 86.617188 244.523438 Z M 86.617188 222.589844 " clip-rule="nonzero"/></clipPath><clipPath id="cf8c7b49dc"><path d="M 97.585938 222.589844 C 91.527344 222.589844 86.617188 227.5 86.617188 233.554688 C 86.617188 239.613281 91.527344 244.523438 97.585938 244.523438 C 103.640625 244.523438 108.554688 239.613281 108.554688 233.554688 C 108.554688 227.5 103.640625 222.589844 97.585938 222.589844 Z M 97.585938 222.589844 " clip-rule="nonzero"/></clipPath><clipPath id="e269601e46"><path d="M 0.617188 0.589844 L 22.554688 0.589844 L 22.554688 22.523438 L 0.617188 22.523438 Z M 0.617188 0.589844 " clip-rule="nonzero"/></clipPath><clipPath id="2ea82010e3"><path d="M 11.585938 0.589844 C 5.527344 0.589844 0.617188 5.5 0.617188 11.554688 C 0.617188 17.613281 5.527344 22.523438 11.585938 22.523438 C 17.640625 22.523438 22.554688 17.613281 22.554688 11.554688 C 22.554688 5.5 17.640625 0.589844 11.585938 0.589844 Z M 11.585938 0.589844 " clip-rule="nonzero"/></clipPath><clipPath id="009fe7bce2"><rect x="0" width="23" y="0" height="23"/></clipPath><clipPath id="e466f806e9"><path d="M 276.910156 292.171875 L 298.84375 292.171875 L 298.84375 314.109375 L 276.910156 314.109375 Z M 276.910156 292.171875 " clip-rule="nonzero"/></clipPath><clipPath id="1c9fb51dcf"><path d="M 287.878906 292.171875 C 281.820312 292.171875 276.910156 297.085938 276.910156 303.140625 C 276.910156 309.199219 281.820312 314.109375 287.878906 314.109375 C 293.933594 314.109375 298.84375 309.199219 298.84375 303.140625 C 298.84375 297.085938 293.933594 292.171875 287.878906 292.171875 Z M 287.878906 292.171875 " clip-rule="nonzero"/></clipPath><clipPath id="2d31cc8c6e"><path d="M 0.910156 0.171875 L 22.84375 0.171875 L 22.84375 22.109375 L 0.910156 22.109375 Z M 0.910156 0.171875 " clip-rule="nonzero"/></clipPath><clipPath id="92330c3535"><path d="M 11.878906 0.171875 C 5.820312 0.171875 0.910156 5.085938 0.910156 11.140625 C 0.910156 17.199219 5.820312 22.109375 11.878906 22.109375 C 17.933594 22.109375 22.84375 17.199219 22.84375 11.140625 C 22.84375 5.085938 17.933594 0.171875 11.878906 0.171875 Z M 11.878906 0.171875 " clip-rule="nonzero"/></clipPath><clipPath id="d56c3e0b16"><rect x="0" width="23" y="0" height="23"/></clipPath><clipPath id="f4be7bd91c"><path d="M 276.910156 152.28125 L 298.84375 152.28125 L 298.84375 174.214844 L 276.910156 174.214844 Z M 276.910156 152.28125 " clip-rule="nonzero"/></clipPath><clipPath id="6e7b63e6a2"><path d="M 287.878906 152.28125 C 281.820312 152.28125 276.910156 157.191406 276.910156 163.25 C 276.910156 169.304688 281.820312 174.214844 287.878906 174.214844 C 293.933594 174.214844 298.84375 169.304688 298.84375 163.25 C 298.84375 157.191406 293.933594 152.28125 287.878906 152.28125 Z M 287.878906 152.28125 " clip-rule="nonzero"/></clipPath><clipPath id="a8b9f83694"><path d="M 0.910156 0.28125 L 22.84375 0.28125 L 22.84375 22.214844 L 0.910156 22.214844 Z M 0.910156 0.28125 " clip-rule="nonzero"/></clipPath><clipPath id="60312fdb95"><path d="M 11.878906 0.28125 C 5.820312 0.28125 0.910156 5.191406 0.910156 11.25 C 0.910156 17.304688 5.820312 22.214844 11.878906 22.214844 C 17.933594 22.214844 22.84375 17.304688 22.84375 11.25 C 22.84375 5.191406 17.933594 0.28125 11.878906 0.28125 Z M 11.878906 0.28125 " clip-rule="nonzero"/></clipPath><clipPath id="0981357179"><rect x="0" width="23" y="0" height="23"/></clipPath><clipPath id="41e190e280"><path d="M 149.808594 292.171875 L 171.746094 292.171875 L 171.746094 314.109375 L 149.808594 314.109375 Z M 149.808594 292.171875 " clip-rule="nonzero"/></clipPath><clipPath id="a3350d5cef"><path d="M 160.777344 292.171875 C 154.71875 292.171875 149.808594 297.085938 149.808594 303.140625 C 149.808594 309.199219 154.71875 314.109375 160.777344 314.109375 C 166.835938 314.109375 171.746094 309.199219 171.746094 303.140625 C 171.746094 297.085938 166.835938 292.171875 160.777344 292.171875 Z M 160.777344 292.171875 " clip-rule="nonzero"/></clipPath><clipPath id="8896ec7a4b"><path d="M 0.808594 0.171875 L 22.746094 0.171875 L 22.746094 22.109375 L 0.808594 22.109375 Z M 0.808594 0.171875 " clip-rule="nonzero"/></clipPath><clipPath id="652f37fb4a"><path d="M 11.777344 0.171875 C 5.71875 0.171875 0.808594 5.085938 0.808594 11.140625 C 0.808594 17.199219 5.71875 22.109375 11.777344 22.109375 C 17.835938 22.109375 22.746094 17.199219 22.746094 11.140625 C 22.746094 5.085938 17.835938 0.171875 11.777344 0.171875 Z M 11.777344 0.171875 " clip-rule="nonzero"/></clipPath><clipPath id="75f9e2f5d0"><rect x="0" width="23" y="0" height="23"/></clipPath><clipPath id="ba36c09b9f"><path d="M 149.808594 152.28125 L 171.746094 152.28125 L 171.746094 174.214844 L 149.808594 174.214844 Z M 149.808594 152.28125 " clip-rule="nonzero"/></clipPath><clipPath id="5801464ff8"><path d="M 160.777344 152.28125 C 154.71875 152.28125 149.808594 157.191406 149.808594 163.25 C 149.808594 169.304688 154.71875 174.214844 160.777344 174.214844 C 166.835938 174.214844 171.746094 169.304688 171.746094 163.25 C 171.746094 157.191406 166.835938 152.28125 160.777344 152.28125 Z M 160.777344 152.28125 " clip-rule="nonzero"/></clipPath><clipPath id="f9b812132d"><path d="M 0.808594 0.28125 L 22.746094 0.28125 L 22.746094 22.214844 L 0.808594 22.214844 Z M 0.808594 0.28125 " clip-rule="nonzero"/></clipPath><clipPath id="56a9469e3d"><path d="M 11.777344 0.28125 C 5.71875 0.28125 0.808594 5.191406 0.808594 11.25 C 0.808594 17.304688 5.71875 22.214844 11.777344 22.214844 C 17.835938 22.214844 22.746094 17.304688 22.746094 11.25 C 22.746094 5.191406 17.835938 0.28125 11.777344 0.28125 Z M 11.777344 0.28125 " clip-rule="nonzero"/></clipPath><clipPath id="bf479da246"><rect x="0" width="23" y="0" height="23"/></clipPath><clipPath id="c2be62a182"><path d="M 23.027344 292.171875 L 44.964844 292.171875 L 44.964844 314.109375 L 23.027344 314.109375 Z M 23.027344 292.171875 " clip-rule="nonzero"/></clipPath><clipPath id="8af2d926f1"><path d="M 33.996094 292.171875 C 27.9375 292.171875 23.027344 297.085938 23.027344 303.140625 C 23.027344 309.199219 27.9375 314.109375 33.996094 314.109375 C 40.054688 314.109375 44.964844 309.199219 44.964844 303.140625 C 44.964844 297.085938 40.054688 292.171875 33.996094 292.171875 Z M 33.996094 292.171875 " clip-rule="nonzero"/></clipPath><clipPath id="7c9362e83e"><path d="M 0.0273438 0.171875 L 21.964844 0.171875 L 21.964844 22.109375 L 0.0273438 22.109375 Z M 0.0273438 0.171875 " clip-rule="nonzero"/></clipPath><clipPath id="975b43ac18"><path d="M 10.996094 0.171875 C 4.9375 0.171875 0.0273438 5.085938 0.0273438 11.140625 C 0.0273438 17.199219 4.9375 22.109375 10.996094 22.109375 C 17.054688 22.109375 21.964844 17.199219 21.964844 11.140625 C 21.964844 5.085938 17.054688 0.171875 10.996094 0.171875 Z M 10.996094 0.171875 " clip-rule="nonzero"/></clipPath><clipPath id="40bed525a1"><rect x="0" width="22" y="0" height="23"/></clipPath><clipPath id="26ff8c2dfb"><path d="M 23.027344 152.28125 L 44.964844 152.28125 L 44.964844 174.214844 L 23.027344 174.214844 Z M 23.027344 152.28125 " clip-rule="nonzero"/></clipPath><clipPath id="b48662391e"><path d="M 33.996094 152.28125 C 27.9375 152.28125 23.027344 157.191406 23.027344 163.25 C 23.027344 169.304688 27.9375 174.214844 33.996094 174.214844 C 40.054688 174.214844 44.964844 169.304688 44.964844 163.25 C 44.964844 157.191406 40.054688 152.28125 33.996094 152.28125 Z M 33.996094 152.28125 " clip-rule="nonzero"/></clipPath><clipPath id="aa2a5ba744"><path d="M 0.0273438 0.28125 L 21.964844 0.28125 L 21.964844 22.214844 L 0.0273438 22.214844 Z M 0.0273438 0.28125 " clip-rule="nonzero"/></clipPath><clipPath id="deb33ee360"><path d="M 10.996094 0.28125 C 4.9375 0.28125 0.0273438 5.191406 0.0273438 11.25 C 0.0273438 17.304688 4.9375 22.214844 10.996094 22.214844 C 17.054688 22.214844 21.964844 17.304688 21.964844 11.25 C 21.964844 5.191406 17.054688 0.28125 10.996094 0.28125 Z M 10.996094 0.28125 " clip-rule="nonzero"/></clipPath><clipPath id="63bedac808"><rect x="0" width="22" y="0" height="23"/></clipPath><clipPath id="b243bcd411"><path d="M 392 0.839844 L 1434 0.839844 L 1434 465.960938 L 392 465.960938 Z M 392 0.839844 " clip-rule="nonzero"/></clipPath><clipPath id="fc4b6da927"><rect x="0" width="1042" y="0" height="466"/></clipPath></defs><g transform="translate(6, -160)"><g clip-path="url(#e645b3749e)"><g clip-path="url(#741e1d9e87)"><g transform="matrix(1, 0, 0, 1, 1, 60)"><g clip-path="url(#7114e3dbd3)"><g clip-path="url(#d6bea09373)"><g clip-path="url(#01cfed8a29)"><path fill="#49a4c2" d="M 0.167969 0.429688 L 65.1875 0.429688 L 65.1875 65.453125 L 0.167969 65.453125 Z M 0.167969 0.429688 " fill-opacity="1" fill-rule="nonzero"/></g></g></g></g></g></g><g clip-path="url(#3d9c3f7b75)"><g clip-path="url(#3ede23dda8)"><g transform="matrix(1, 0, 0, 1, 255, 60)"><g clip-path="url(#683973c314)"><g clip-path="url(#5ff45463a5)"><g clip-path="url(#da3c222086)"><path fill="#49a4c2" d="M 0.367188 0.429688 L 65.386719 0.429688 L 65.386719 65.453125 L 0.367188 65.453125 Z M 0.367188 0.429688 " fill-opacity="1" fill-rule="nonzero"/></g></g></g></g></g></g><g clip-path="url(#72b46e23b5)"><g clip-path="url(#ac8a340b3c)"><g transform="matrix(1, 0, 0, 1, 255, 340)"><g clip-path="url(#8be1de0e5b)"><g clip-path="url(#338fecc52d)"><g clip-path="url(#f7463e1d16)"><path fill="#49a4c2" d="M 0.367188 0.214844 L 65.386719 0.214844 L 65.386719 65.238281 L 0.367188 65.238281 Z M 0.367188 0.214844 " fill-opacity="1" fill-rule="nonzero"/></g></g></g></g></g></g><g clip-path="url(#4acba745ad)"><g clip-path="url(#0a51f8c56f)"><g transform="matrix(1, 0, 0, 1, 1, 340)"><g clip-path="url(#e22a3b65fa)"><g clip-path="url(#f3e8b255a2)"><g clip-path="url(#d38aa4a07f)"><path fill="#49a4c2" d="M 0.167969 0.214844 L 65.1875 0.214844 L 65.1875 65.238281 L 0.167969 65.238281 Z M 0.167969 0.214844 " fill-opacity="1" fill-rule="nonzero"/></g></g></g></g></g></g><g clip-path="url(#9af426abfa)"><g clip-path="url(#565eb218bb)"><g transform="matrix(1, 0, 0, 1, 128, 201)"><g clip-path="url(#ac08e292da)"><g clip-path="url(#e834f2c481)"><g clip-path="url(#d8bf9c8251)"><path fill="#49a4c2" d="M 0.265625 0.046875 L 65.289062 0.046875 L 65.289062 65.066406 L 0.265625 65.066406 Z M 0.265625 0.046875 " fill-opacity="1" fill-rule="nonzero"/></g></g></g></g></g></g><g clip-path="url(#e6317a6792)"><g clip-path="url(#66c8b92acc)"><g transform="matrix(1, 0, 0, 1, 265, 211)"><g clip-path="url(#592efc623c)"><g clip-path="url(#0dc5db706d)"><g clip-path="url(#43508a1071)"><path fill="#49a4c2" d="M 0.941406 0.621094 L 44.8125 0.621094 L 44.8125 44.492188 L 0.941406 44.492188 Z M 0.941406 0.621094 " fill-opacity="1" fill-rule="nonzero"/></g></g></g></g></g></g><g clip-path="url(#aca09a9928)"><g clip-path="url(#3fbf1f2e8c)"><g transform="matrix(1, 0, 0, 1, 202, 141)"><g clip-path="url(#afd58a0a84)"><g clip-path="url(#a451fe90ec)"><g clip-path="url(#d8868da249)"><path fill="#49a4c2" d="M 0.0351562 0.3125 L 43.90625 0.3125 L 43.90625 44.183594 L 0.0351562 44.183594 Z M 0.0351562 0.3125 " fill-opacity="1" fill-rule="nonzero"/></g></g></g></g></g></g><g clip-path="url(#e579e484c1)"><g clip-path="url(#b05992a338)"><g transform="matrix(1, 0, 0, 1, 75, 141)"><g clip-path="url(#8633759d32)"><g clip-path="url(#a8dc002fad)"><g clip-path="url(#305f9e357c)"><path fill="#49a4c2" d="M 0.648438 0.3125 L 44.519531 0.3125 L 44.519531 44.183594 L 0.648438 44.183594 Z M 0.648438 0.3125 " fill-opacity="1" fill-rule="nonzero"/></g></g></g></g></g></g><g clip-path="url(#3395980e1d)"><g clip-path="url(#3a26896130)"><g transform="matrix(1, 0, 0, 1, 75, 281)"><g clip-path="url(#eb178c0a6f)"><g clip-path="url(#dbd0e29074)"><g clip-path="url(#42970e31f4)"><path fill="#49a4c2" d="M 0.648438 0.800781 L 44.519531 0.800781 L 44.519531 44.675781 L 0.648438 44.675781 Z M 0.648438 0.800781 " fill-opacity="1" fill-rule="nonzero"/></g></g></g></g></g></g><g clip-path="url(#f1f31407e8)"><g clip-path="url(#43b76447b0)"><g transform="matrix(1, 0, 0, 1, 202, 281)"><g clip-path="url(#906f187fa9)"><g clip-path="url(#57106da13a)"><g clip-path="url(#0449fec272)"><path fill="#49a4c2" d="M 0.0351562 0.800781 L 43.90625 0.800781 L 43.90625 44.675781 L 0.0351562 44.675781 Z M 0.0351562 0.800781 " fill-opacity="1" fill-rule="nonzero"/></g></g></g></g></g></g><g clip-path="url(#70eeb38a2e)"><g clip-path="url(#1f719312e8)"><g transform="matrix(1, 0, 0, 1, 11, 211)"><g clip-path="url(#711353ccec)"><g clip-path="url(#a52633f0b6)"><g clip-path="url(#18141119cf)"><path fill="#49a4c2" d="M 0.742188 0.621094 L 44.613281 0.621094 L 44.613281 44.492188 L 0.742188 44.492188 Z M 0.742188 0.621094 " fill-opacity="1" fill-rule="nonzero"/></g></g></g></g></g></g><g clip-path="url(#b3f6808398)"><g clip-path="url(#029cde980b)"><g transform="matrix(1, 0, 0, 1, 138, 350)"><g clip-path="url(#5941ed2258)"><g clip-path="url(#a0d6df3ca8)"><g clip-path="url(#567b0aea17)"><path fill="#49a4c2" d="M 0.839844 0.789062 L 44.714844 0.789062 L 44.714844 44.664062 L 0.839844 44.664062 Z M 0.839844 0.789062 " fill-opacity="1" fill-rule="nonzero"/></g></g></g></g></g></g><g clip-path="url(#9ef7cdf765)"><g clip-path="url(#b4addd905d)"><g transform="matrix(1, 0, 0, 1, 138, 71)"><g clip-path="url(#c8fe4d44be)"><g clip-path="url(#5f9fd6e081)"><g clip-path="url(#db37872eee)"><path fill="#49a4c2" d="M 0.839844 0.00390625 L 44.714844 0.00390625 L 44.714844 43.878906 L 0.839844 43.878906 Z M 0.839844 0.00390625 " fill-opacity="1" fill-rule="nonzero"/></g></g></g></g></g></g><g clip-path="url(#7955ea4189)"><g clip-path="url(#f86f8649be)"><g transform="matrix(1, 0, 0, 1, 86, 81)"><g clip-path="url(#c0a28c4acc)"><g clip-path="url(#b5ca146dc1)"><g clip-path="url(#b8220749d3)"><path fill="#49a4c2" d="M 0.273438 0.972656 L 22.207031 0.972656 L 22.207031 22.910156 L 0.273438 22.910156 Z M 0.273438 0.972656 " fill-opacity="1" fill-rule="nonzero"/></g></g></g></g></g></g><g clip-path="url(#af2bc151e1)"><g clip-path="url(#4faac322da)"><g transform="matrix(1, 0, 0, 1, 213, 81)"><g clip-path="url(#c2726c3120)"><g clip-path="url(#6ac3c92cb1)"><g clip-path="url(#2284592c13)"><path fill="#49a4c2" d="M 0.00390625 0.972656 L 21.9375 0.972656 L 21.9375 22.910156 L 0.00390625 22.910156 Z M 0.00390625 0.972656 " fill-opacity="1" fill-rule="nonzero"/></g></g></g></g></g></g><g clip-path="url(#876ebb32e9)"><g clip-path="url(#91e6bf2b86)"><g transform="matrix(1, 0, 0, 1, 213, 222)"><g clip-path="url(#0e35889315)"><g clip-path="url(#e675ece92c)"><g clip-path="url(#6ab9fce693)"><path fill="#49a4c2" d="M 0.00390625 0.589844 L 21.9375 0.589844 L 21.9375 22.523438 L 0.00390625 22.523438 Z M 0.00390625 0.589844 " fill-opacity="1" fill-rule="nonzero"/></g></g></g></g></g></g><g clip-path="url(#77cdac6ef6)"><g clip-path="url(#2e3a5dee69)"><g transform="matrix(1, 0, 0, 1, 213, 361)"><g clip-path="url(#f6c88f6834)"><g clip-path="url(#cb6f842951)"><g clip-path="url(#9b46292a88)"><path fill="#49a4c2" d="M 0.00390625 0.757812 L 21.9375 0.757812 L 21.9375 22.695312 L 0.00390625 22.695312 Z M 0.00390625 0.757812 " fill-opacity="1" fill-rule="nonzero"/></g></g></g></g></g></g><g clip-path="url(#60e5e529c2)"><g clip-path="url(#c56f654c4a)"><g transform="matrix(1, 0, 0, 1, 86, 361)"><g clip-path="url(#bcba12f8a4)"><g clip-path="url(#4344f087ce)"><g clip-path="url(#21d975969a)"><path fill="#49a4c2" d="M 0.617188 0.757812 L 22.554688 0.757812 L 22.554688 22.695312 L 0.617188 22.695312 Z M 0.617188 0.757812 " fill-opacity="1" fill-rule="nonzero"/></g></g></g></g></g></g><g clip-path="url(#a7fb778d08)"><g clip-path="url(#cf8c7b49dc)"><g transform="matrix(1, 0, 0, 1, 86, 222)"><g clip-path="url(#009fe7bce2)"><g clip-path="url(#e269601e46)"><g clip-path="url(#2ea82010e3)"><path fill="#49a4c2" d="M 0.617188 0.589844 L 22.554688 0.589844 L 22.554688 22.523438 L 0.617188 22.523438 Z M 0.617188 0.589844 " fill-opacity="1" fill-rule="nonzero"/></g></g></g></g></g></g><g clip-path="url(#e466f806e9)"><g clip-path="url(#1c9fb51dcf)"><g transform="matrix(1, 0, 0, 1, 276, 292)"><g clip-path="url(#d56c3e0b16)"><g clip-path="url(#2d31cc8c6e)"><g clip-path="url(#92330c3535)"><path fill="#49a4c2" d="M 0.910156 0.171875 L 22.84375 0.171875 L 22.84375 22.109375 L 0.910156 22.109375 Z M 0.910156 0.171875 " fill-opacity="1" fill-rule="nonzero"/></g></g></g></g></g></g><g clip-path="url(#f4be7bd91c)"><g clip-path="url(#6e7b63e6a2)"><g transform="matrix(1, 0, 0, 1, 276, 152)"><g clip-path="url(#0981357179)"><g clip-path="url(#a8b9f83694)"><g clip-path="url(#60312fdb95)"><path fill="#49a4c2" d="M 0.910156 0.28125 L 22.84375 0.28125 L 22.84375 22.214844 L 0.910156 22.214844 Z M 0.910156 0.28125 " fill-opacity="1" fill-rule="nonzero"/></g></g></g></g></g></g><g clip-path="url(#41e190e280)"><g clip-path="url(#a3350d5cef)"><g transform="matrix(1, 0, 0, 1, 149, 292)"><g clip-path="url(#75f9e2f5d0)"><g clip-path="url(#8896ec7a4b)"><g clip-path="url(#652f37fb4a)"><path fill="#49a4c2" d="M 0.808594 0.171875 L 22.746094 0.171875 L 22.746094 22.109375 L 0.808594 22.109375 Z M 0.808594 0.171875 " fill-opacity="1" fill-rule="nonzero"/></g></g></g></g></g></g><g clip-path="url(#ba36c09b9f)"><g clip-path="url(#5801464ff8)"><g transform="matrix(1, 0, 0, 1, 149, 152)"><g clip-path="url(#bf479da246)"><g clip-path="url(#f9b812132d)"><g clip-path="url(#56a9469e3d)"><path fill="#49a4c2" d="M 0.808594 0.28125 L 22.746094 0.28125 L 22.746094 22.214844 L 0.808594 22.214844 Z M 0.808594 0.28125 " fill-opacity="1" fill-rule="nonzero"/></g></g></g></g></g></g><g clip-path="url(#c2be62a182)"><g clip-path="url(#8af2d926f1)"><g transform="matrix(1, 0, 0, 1, 23, 292)"><g clip-path="url(#40bed525a1)"><g clip-path="url(#7c9362e83e)"><g clip-path="url(#975b43ac18)"><path fill="#49a4c2" d="M 0.0273438 0.171875 L 21.964844 0.171875 L 21.964844 22.109375 L 0.0273438 22.109375 Z M 0.0273438 0.171875 " fill-opacity="1" fill-rule="nonzero"/></g></g></g></g></g></g><g clip-path="url(#26ff8c2dfb)"><g clip-path="url(#b48662391e)"><g transform="matrix(1, 0, 0, 1, 23, 152)"><g clip-path="url(#63bedac808)"><g clip-path="url(#aa2a5ba744)"><g clip-path="url(#deb33ee360)"><path fill="#49a4c2" d="M 0.0273438 0.28125 L 21.964844 0.28125 L 21.964844 22.214844 L 0.0273438 22.214844 Z M 0.0273438 0.28125 " fill-opacity="1" fill-rule="nonzero"/></g></g></g></g></g></g><g clip-path="url(#b243bcd411)"><g transform="matrix(1, 0, 0, 1, 392, 0.000000000000028422)"><g clip-path="url(#fc4b6da927)"><g fill="#5d99ba" fill-opacity="1"><g transform="translate(0.615113, 181.573986)"><g><path d="M 40.53125 -98.28125 L 40.53125 -73.578125 L 80.359375 -73.578125 L 80.359375 -50.625 L 40.53125 -50.625 L 40.53125 -23.828125 L 85.578125 -23.828125 L 85.578125 0 L 10.78125 0 L 10.78125 -122.109375 L 85.578125 -122.109375 L 85.578125 -98.28125 Z M 40.53125 -98.28125 "/></g></g></g><g fill="#5d99ba" fill-opacity="1"><g transform="translate(97.674869, 181.573986)"><g><path d="M 38.625 -24.53125 L 80.71875 -24.53125 L 80.71875 0 L 5.390625 0 L 5.390625 -23.65625 L 45.75 -72.53125 L 5.734375 -72.53125 L 5.734375 -97.0625 L 79.84375 -97.0625 L 79.84375 -73.40625 Z M 38.625 -24.53125 "/></g></g></g><g fill="#5d99ba" fill-opacity="1"><g transform="translate(186.907274, 181.573986)"><g><path d="M 102.28125 -50.09375 C 102.28125 -47.3125 102.109375 -44.414062 101.765625 -41.40625 L 34.4375 -41.40625 C 34.90625 -35.375 36.847656 -30.757812 40.265625 -27.5625 C 43.691406 -24.375 47.894531 -22.78125 52.875 -22.78125 C 60.300781 -22.78125 65.460938 -25.914062 68.359375 -32.1875 L 100.015625 -32.1875 C 98.398438 -25.800781 95.472656 -20.054688 91.234375 -14.953125 C 87.003906 -9.859375 81.695312 -5.859375 75.3125 -2.953125 C 68.9375 -0.0546875 61.804688 1.390625 53.921875 1.390625 C 44.410156 1.390625 35.941406 -0.632812 28.515625 -4.6875 C 21.097656 -8.75 15.300781 -14.550781 11.125 -22.09375 C 6.957031 -29.632812 4.875 -38.445312 4.875 -48.53125 C 4.875 -58.625 6.929688 -67.4375 11.046875 -74.96875 C 15.160156 -82.507812 20.925781 -88.304688 28.34375 -92.359375 C 35.769531 -96.421875 44.296875 -98.453125 53.921875 -98.453125 C 63.316406 -98.453125 71.664062 -96.476562 78.96875 -92.53125 C 86.28125 -88.59375 91.992188 -82.96875 96.109375 -75.65625 C 100.222656 -68.351562 102.28125 -59.832031 102.28125 -50.09375 Z M 71.84375 -57.921875 C 71.84375 -63.023438 70.101562 -67.082031 66.625 -70.09375 C 63.144531 -73.113281 58.796875 -74.625 53.578125 -74.625 C 48.585938 -74.625 44.378906 -73.171875 40.953125 -70.265625 C 37.535156 -67.367188 35.421875 -63.253906 34.609375 -57.921875 Z M 71.84375 -57.921875 "/></g></g></g><g fill="#5d99ba" fill-opacity="1"><g transform="translate(297.01263, 181.573986)"><g><path d="M 40.53125 -80.890625 C 44.007812 -86.222656 48.359375 -90.425781 53.578125 -93.5 C 58.796875 -96.570312 64.59375 -98.109375 70.96875 -98.109375 L 70.96875 -66.625 L 62.796875 -66.625 C 55.367188 -66.625 49.800781 -65.03125 46.09375 -61.84375 C 42.382812 -58.65625 40.53125 -53.054688 40.53125 -45.046875 L 40.53125 0 L 10.78125 0 L 10.78125 -97.0625 L 40.53125 -97.0625 Z M 40.53125 -80.890625 "/></g></g></g><g fill="#5d99ba" fill-opacity="1"><g transform="translate(0.615113, 403.694701)"><g><path d="M 40.53125 -98.28125 L 40.53125 -73.578125 L 80.359375 -73.578125 L 80.359375 -50.625 L 40.53125 -50.625 L 40.53125 -23.828125 L 85.578125 -23.828125 L 85.578125 0 L 10.78125 0 L 10.78125 -122.109375 L 85.578125 -122.109375 L 85.578125 -98.28125 Z M 40.53125 -98.28125 "/></g></g></g><g fill="#5d99ba" fill-opacity="1"><g transform="translate(97.674869, 403.694701)"><g><path d="M 69.921875 -98.109375 C 81.285156 -98.109375 90.359375 -94.425781 97.140625 -87.0625 C 103.929688 -79.695312 107.328125 -69.578125 107.328125 -56.703125 L 107.328125 0 L 77.75 0 L 77.75 -52.703125 C 77.75 -59.203125 76.066406 -64.25 72.703125 -67.84375 C 69.347656 -71.4375 64.828125 -73.234375 59.140625 -73.234375 C 53.460938 -73.234375 48.941406 -71.4375 45.578125 -67.84375 C 42.210938 -64.25 40.53125 -59.203125 40.53125 -52.703125 L 40.53125 0 L 10.78125 0 L 10.78125 -97.0625 L 40.53125 -97.0625 L 40.53125 -84.1875 C 43.539062 -88.476562 47.597656 -91.867188 52.703125 -94.359375 C 57.804688 -96.859375 63.546875 -98.109375 69.921875 -98.109375 Z M 69.921875 -98.109375 "/></g></g></g><g fill="#5d99ba" fill-opacity="1"><g transform="translate(217.868825, 403.694701)"><g><path d="M 64.890625 -25.21875 L 64.890625 0 L 49.75 0 C 38.96875 0 30.5625 -2.632812 24.53125 -7.90625 C 18.5 -13.1875 15.484375 -21.800781 15.484375 -33.75 L 15.484375 -72.359375 L 3.65625 -72.359375 L 3.65625 -97.0625 L 15.484375 -97.0625 L 15.484375 -120.71875 L 45.234375 -120.71875 L 45.234375 -97.0625 L 64.703125 -97.0625 L 64.703125 -72.359375 L 45.234375 -72.359375 L 45.234375 -33.40625 C 45.234375 -30.5 45.925781 -28.40625 47.3125 -27.125 C 48.707031 -25.851562 51.023438 -25.21875 54.265625 -25.21875 Z M 64.890625 -25.21875 "/></g></g></g><g fill="#5d99ba" fill-opacity="1"><g transform="translate(291.446485, 403.694701)"><g><path d="M 102.28125 -50.09375 C 102.28125 -47.3125 102.109375 -44.414062 101.765625 -41.40625 L 34.4375 -41.40625 C 34.90625 -35.375 36.847656 -30.757812 40.265625 -27.5625 C 43.691406 -24.375 47.894531 -22.78125 52.875 -22.78125 C 60.300781 -22.78125 65.460938 -25.914062 68.359375 -32.1875 L 100.015625 -32.1875 C 98.398438 -25.800781 95.472656 -20.054688 91.234375 -14.953125 C 87.003906 -9.859375 81.695312 -5.859375 75.3125 -2.953125 C 68.9375 -0.0546875 61.804688 1.390625 53.921875 1.390625 C 44.410156 1.390625 35.941406 -0.632812 28.515625 -4.6875 C 21.097656 -8.75 15.300781 -14.550781 11.125 -22.09375 C 6.957031 -29.632812 4.875 -38.445312 4.875 -48.53125 C 4.875 -58.625 6.929688 -67.4375 11.046875 -74.96875 C 15.160156 -82.507812 20.925781 -88.304688 28.34375 -92.359375 C 35.769531 -96.421875 44.296875 -98.453125 53.921875 -98.453125 C 63.316406 -98.453125 71.664062 -96.476562 78.96875 -92.53125 C 86.28125 -88.59375 91.992188 -82.96875 96.109375 -75.65625 C 100.222656 -68.351562 102.28125 -59.832031 102.28125 -50.09375 Z M 71.84375 -57.921875 C 71.84375 -63.023438 70.101562 -67.082031 66.625 -70.09375 C 63.144531 -73.113281 58.796875 -74.625 53.578125 -74.625 C 48.585938 -74.625 44.378906 -73.171875 40.953125 -70.265625 C 37.535156 -67.367188 35.421875 -63.253906 34.609375 -57.921875 Z M 71.84375 -57.921875 "/></g></g></g><g fill="#5d99ba" fill-opacity="1"><g transform="translate(401.55182, 403.694701)"><g><path d="M 40.53125 -80.890625 C 44.007812 -86.222656 48.359375 -90.425781 53.578125 -93.5 C 58.796875 -96.570312 64.59375 -98.109375 70.96875 -98.109375 L 70.96875 -66.625 L 62.796875 -66.625 C 55.367188 -66.625 49.800781 -65.03125 46.09375 -61.84375 C 42.382812 -58.65625 40.53125 -53.054688 40.53125 -45.046875 L 40.53125 0 L 10.78125 0 L 10.78125 -97.0625 L 40.53125 -97.0625 Z M 40.53125 -80.890625 "/></g></g></g><g fill="#5d99ba" fill-opacity="1"><g transform="translate(478.956202, 403.694701)"><g><path d="M 40.53125 -83.328125 C 43.425781 -87.847656 47.425781 -91.5 52.53125 -94.28125 C 57.632812 -97.0625 63.609375 -98.453125 70.453125 -98.453125 C 78.453125 -98.453125 85.695312 -96.421875 92.1875 -92.359375 C 98.6875 -88.304688 103.820312 -82.507812 107.59375 -74.96875 C 111.363281 -67.4375 113.25 -58.679688 113.25 -48.703125 C 113.25 -38.734375 111.363281 -29.945312 107.59375 -22.34375 C 103.820312 -14.75 98.6875 -8.894531 92.1875 -4.78125 C 85.695312 -0.664062 78.453125 1.390625 70.453125 1.390625 C 63.722656 1.390625 57.773438 0 52.609375 -2.78125 C 47.453125 -5.5625 43.425781 -9.15625 40.53125 -13.5625 L 40.53125 46.265625 L 10.78125 46.265625 L 10.78125 -97.0625 L 40.53125 -97.0625 Z M 82.96875 -48.703125 C 82.96875 -56.128906 80.910156 -61.957031 76.796875 -66.1875 C 72.679688 -70.414062 67.609375 -72.53125 61.578125 -72.53125 C 55.660156 -72.53125 50.644531 -70.382812 46.53125 -66.09375 C 42.414062 -61.8125 40.359375 -55.957031 40.359375 -48.53125 C 40.359375 -41.113281 42.414062 -35.257812 46.53125 -30.96875 C 50.644531 -26.675781 55.660156 -24.53125 61.578125 -24.53125 C 67.492188 -24.53125 72.535156 -26.703125 76.703125 -31.046875 C 80.878906 -35.398438 82.96875 -41.285156 82.96875 -48.703125 Z M 82.96875 -48.703125 "/></g></g></g><g fill="#5d99ba" fill-opacity="1"><g transform="translate(600.0199, 403.694701)"><g><path d="M 40.53125 -80.890625 C 44.007812 -86.222656 48.359375 -90.425781 53.578125 -93.5 C 58.796875 -96.570312 64.59375 -98.109375 70.96875 -98.109375 L 70.96875 -66.625 L 62.796875 -66.625 C 55.367188 -66.625 49.800781 -65.03125 46.09375 -61.84375 C 42.382812 -58.65625 40.53125 -53.054688 40.53125 -45.046875 L 40.53125 0 L 10.78125 0 L 10.78125 -97.0625 L 40.53125 -97.0625 Z M 40.53125 -80.890625 "/></g></g></g><g fill="#5d99ba" fill-opacity="1"><g transform="translate(677.424283, 403.694701)"><g><path d="M 25.75 -107.15625 C 20.53125 -107.15625 16.265625 -108.691406 12.953125 -111.765625 C 9.648438 -114.835938 8 -118.632812 8 -123.15625 C 8 -127.789062 9.648438 -131.644531 12.953125 -134.71875 C 16.265625 -137.800781 20.53125 -139.34375 25.75 -139.34375 C 30.851562 -139.34375 35.054688 -137.800781 38.359375 -134.71875 C 41.660156 -131.644531 43.3125 -127.789062 43.3125 -123.15625 C 43.3125 -118.632812 41.660156 -114.835938 38.359375 -111.765625 C 35.054688 -108.691406 30.851562 -107.15625 25.75 -107.15625 Z M 40.53125 -97.0625 L 40.53125 0 L 10.78125 0 L 10.78125 -97.0625 Z M 40.53125 -97.0625 "/></g></g></g><g fill="#5d99ba" fill-opacity="1"><g transform="translate(731.694486, 403.694701)"><g><path d="M 50.265625 1.390625 C 41.804688 1.390625 34.269531 -0.0546875 27.65625 -2.953125 C 21.050781 -5.859375 15.832031 -9.832031 12 -14.875 C 8.175781 -19.914062 6.03125 -25.566406 5.5625 -31.828125 L 34.96875 -31.828125 C 35.3125 -28.460938 36.875 -25.738281 39.65625 -23.65625 C 42.445312 -21.570312 45.867188 -20.53125 49.921875 -20.53125 C 53.628906 -20.53125 56.5 -21.253906 58.53125 -22.703125 C 60.5625 -24.148438 61.578125 -26.035156 61.578125 -28.359375 C 61.578125 -31.140625 60.125 -33.195312 57.21875 -34.53125 C 54.320312 -35.863281 49.628906 -37.34375 43.140625 -38.96875 C 36.179688 -40.59375 30.378906 -42.300781 25.734375 -44.09375 C 21.097656 -45.894531 17.097656 -48.738281 13.734375 -52.625 C 10.378906 -56.507812 8.703125 -61.753906 8.703125 -68.359375 C 8.703125 -73.929688 10.238281 -79.003906 13.3125 -83.578125 C 16.382812 -88.160156 20.90625 -91.785156 26.875 -94.453125 C 32.84375 -97.117188 39.945312 -98.453125 48.1875 -98.453125 C 60.363281 -98.453125 69.957031 -95.4375 76.96875 -89.40625 C 83.988281 -83.375 88.019531 -75.375 89.0625 -65.40625 L 61.578125 -65.40625 C 61.117188 -68.769531 59.640625 -71.4375 57.140625 -73.40625 C 54.648438 -75.375 51.375 -76.359375 47.3125 -76.359375 C 43.832031 -76.359375 41.164062 -75.691406 39.3125 -74.359375 C 37.457031 -73.023438 36.53125 -71.203125 36.53125 -68.890625 C 36.53125 -66.097656 38.007812 -64.003906 40.96875 -62.609375 C 43.925781 -61.222656 48.535156 -59.835938 54.796875 -58.453125 C 61.984375 -56.597656 67.835938 -54.769531 72.359375 -52.96875 C 76.890625 -51.164062 80.863281 -48.265625 84.28125 -44.265625 C 87.695312 -40.265625 89.460938 -34.90625 89.578125 -28.1875 C 89.578125 -22.5 87.984375 -17.421875 84.796875 -12.953125 C 81.609375 -8.492188 77.023438 -4.988281 71.046875 -2.4375 C 65.078125 0.113281 58.148438 1.390625 50.265625 1.390625 Z M 50.265625 1.390625 "/></g></g></g><g fill="#5d99ba" fill-opacity="1"><g transform="translate(831.711221, 403.694701)"><g><path d="M 102.28125 -50.09375 C 102.28125 -47.3125 102.109375 -44.414062 101.765625 -41.40625 L 34.4375 -41.40625 C 34.90625 -35.375 36.847656 -30.757812 40.265625 -27.5625 C 43.691406 -24.375 47.894531 -22.78125 52.875 -22.78125 C 60.300781 -22.78125 65.460938 -25.914062 68.359375 -32.1875 L 100.015625 -32.1875 C 98.398438 -25.800781 95.472656 -20.054688 91.234375 -14.953125 C 87.003906 -9.859375 81.695312 -5.859375 75.3125 -2.953125 C 68.9375 -0.0546875 61.804688 1.390625 53.921875 1.390625 C 44.410156 1.390625 35.941406 -0.632812 28.515625 -4.6875 C 21.097656 -8.75 15.300781 -14.550781 11.125 -22.09375 C 6.957031 -29.632812 4.875 -38.445312 4.875 -48.53125 C 4.875 -58.625 6.929688 -67.4375 11.046875 -74.96875 C 15.160156 -82.507812 20.925781 -88.304688 28.34375 -92.359375 C 35.769531 -96.421875 44.296875 -98.453125 53.921875 -98.453125 C 63.316406 -98.453125 71.664062 -96.476562 78.96875 -92.53125 C 86.28125 -88.59375 91.992188 -82.96875 96.109375 -75.65625 C 100.222656 -68.351562 102.28125 -59.832031 102.28125 -50.09375 Z M 71.84375 -57.921875 C 71.84375 -63.023438 70.101562 -67.082031 66.625 -70.09375 C 63.144531 -73.113281 58.796875 -74.625 53.578125 -74.625 C 48.585938 -74.625 44.378906 -73.171875 40.953125 -70.265625 C 37.535156 -67.367188 35.421875 -63.253906 34.609375 -57.921875 Z M 71.84375 -57.921875 "/></g></g></g><g fill="#5d99ba" fill-opacity="1"><g transform="translate(941.816598, 403.694701)"><g><path d="M 50.265625 1.390625 C 41.804688 1.390625 34.269531 -0.0546875 27.65625 -2.953125 C 21.050781 -5.859375 15.832031 -9.832031 12 -14.875 C 8.175781 -19.914062 6.03125 -25.566406 5.5625 -31.828125 L 34.96875 -31.828125 C 35.3125 -28.460938 36.875 -25.738281 39.65625 -23.65625 C 42.445312 -21.570312 45.867188 -20.53125 49.921875 -20.53125 C 53.628906 -20.53125 56.5 -21.253906 58.53125 -22.703125 C 60.5625 -24.148438 61.578125 -26.035156 61.578125 -28.359375 C 61.578125 -31.140625 60.125 -33.195312 57.21875 -34.53125 C 54.320312 -35.863281 49.628906 -37.34375 43.140625 -38.96875 C 36.179688 -40.59375 30.378906 -42.300781 25.734375 -44.09375 C 21.097656 -45.894531 17.097656 -48.738281 13.734375 -52.625 C 10.378906 -56.507812 8.703125 -61.753906 8.703125 -68.359375 C 8.703125 -73.929688 10.238281 -79.003906 13.3125 -83.578125 C 16.382812 -88.160156 20.90625 -91.785156 26.875 -94.453125 C 32.84375 -97.117188 39.945312 -98.453125 48.1875 -98.453125 C 60.363281 -98.453125 69.957031 -95.4375 76.96875 -89.40625 C 83.988281 -83.375 88.019531 -75.375 89.0625 -65.40625 L 61.578125 -65.40625 C 61.117188 -68.769531 59.640625 -71.4375 57.140625 -73.40625 C 54.648438 -75.375 51.375 -76.359375 47.3125 -76.359375 C 43.832031 -76.359375 41.164062 -75.691406 39.3125 -74.359375 C 37.457031 -73.023438 36.53125 -71.203125 36.53125 -68.890625 C 36.53125 -66.097656 38.007812 -64.003906 40.96875 -62.609375 C 43.925781 -61.222656 48.535156 -59.835938 54.796875 -58.453125 C 61.984375 -56.597656 67.835938 -54.769531 72.359375 -52.96875 C 76.890625 -51.164062 80.863281 -48.265625 84.28125 -44.265625 C 87.695312 -40.265625 89.460938 -34.90625 89.578125 -28.1875 C 89.578125 -22.5 87.984375 -17.421875 84.796875 -12.953125 C 81.609375 -8.492188 77.023438 -4.988281 71.046875 -2.4375 C 65.078125 0.113281 58.148438 1.390625 50.265625 1.390625 Z M 50.265625 1.390625 "/></g></g></g></g></g></g></g></svg>
